<svg id="Layer_1" data-name="Layer 1" xmlns="http://www.w3.org/2000/svg" xmlns:xlink="http://www.w3.org/1999/xlink" viewBox="0 0 1905.88 1995.17"><defs><style>.cls-1{fill:none;}.cls-2{fill:#0d5ba1;}.cls-3{fill:#ec0000;}.cls-4,.cls-5{fill:#fff;}.cls-5{font-size:150.84px;font-family:Montserrat-ExtraBold, Montserrat;font-weight:800;letter-spacing:0.01em;}.cls-6{letter-spacing:0em;}.cls-7{letter-spacing:0.02em;}.cls-8{letter-spacing:-0.02em;}.cls-9{clip-path:url(#clip-path);}</style><clipPath id="clip-path"><rect class="cls-1" x="2116.47" y="-6.86" width="1905.88" height="1998.88"/></clipPath></defs><rect class="cls-2" y="-3.71" width="1905.88" height="1998.88"/><path class="cls-3" d="M370.19,1009.44a31.62,31.62,0,0,0,2.11-4.74,36.14,36.14,0,0,1,9.51-16.82c16.25-16.15,32.42-32.4,48.86-48.37,15.18-14.74,37.4-14.28,52.58,1q57.24,57.57,114.33,115.29c1.59,1.61,3.22,3.17,5.26,5.18L1198.68,470.4c-1.06-1.23-2-2.44-3-3.51q-10.77-10.92-21.59-21.8a24.46,24.46,0,0,1-7.38-16.49c-.36-7.62,1.95-11,9.13-13.38l71.78-23.38L1437.34,330c2-.63,3.92-1.2,6.9-2.1-.76,2.88-1.2,4.86-1.8,6.78q-27.64,89.6-55.32,179.19-13.41,43.39-26.78,86.82c-2.56,8.32-7.43,11.22-16,9.49a26.74,26.74,0,0,1-14.23-7.58c-9.25-9.44-18.6-18.8-27.91-28.18-1-1-2-1.91-3.52-3.29-1.68,1.59-3.32,3.08-4.89,4.63Q1192,676.64,1090.2,777.51q-229.89,227.85-459.74,455.74c-5.76,5.71-12.05,10.27-20.12,12-13.07,2.74-24.47-.61-34-9.87-9.36-9.09-18.57-18.33-27.75-27.59q-82.3-83-164.6-166c-5.72-5.77-10.18-12.1-11.93-20.16a16.16,16.16,0,0,0-1.87-3.71Z"/><path class="cls-4" d="M631.47,1268.41c-.15-10.89,3.91-19.71,11.43-27.15q39.12-38.65,78.15-77.41l468.47-464.12c1.88-1.86,3.72-3.77,5.7-5.52,14.21-12.58,35.42-12.54,49,.71q25.33,24.75,49.88,50.32c13.73,14.34,13.1,36.24-1.13,50.53-19.4,19.49-39,38.76-58.55,58.11L884.65,1200.39Q813.84,1270.55,743,1340.72c-5.78,5.73-12.26,9.88-20.39,11.39-12.15,2.26-23-.66-31.67-9.19-16.88-16.52-33.42-33.39-49.92-50.29A33.26,33.26,0,0,1,631.47,1268.41Z"/><path class="cls-4" d="M1078.23,1029.4c2,1.86,3.36,3.17,4.73,4.53l206.63,204.7c1.63,1.62,3.29,3.2,4.82,4.9,12.69,14.09,12.84,35.34-.29,49q-24.52,25.58-49.88,50.33c-14.22,13.87-36.09,13.44-50.51-.68-21.53-21.09-42.87-42.38-64.29-63.6q-73.07-72.39-146.12-144.79c-1.61-1.59-3.15-3.25-5.13-5.29Z"/><path class="cls-4" d="M751.9,893.11c-1.5-1.38-2.58-2.28-3.56-3.27q-47.82-48.23-95.63-96.45a35.93,35.93,0,0,1-10.45-19.73c-2.08-12.52,1.29-23.38,10.21-32.37,11-11.12,22.24-22.1,33.38-33.14,4.88-4.84,9.71-9.72,14.65-14.5,15.25-14.73,37.17-14.82,52.08.14Q800.91,742.24,849,791c.85.86,1.61,1.81,2.81,3.17Z"/><text class="cls-5" transform="translate(527.11 1547.5) scale(0.94 1)">SALES<tspan class="cls-6" x="515.4" y="0">P</tspan><tspan class="cls-7" x="626.72" y="0">L</tspan><tspan class="cls-8" x="721.6" y="0">A</tspan><tspan x="836.54" y="0">T</tspan></text><g class="cls-9"><image width="3000" height="2000" transform="translate(1502.35 -70.03) scale(1.06)" xlink:href="../Salesplat/work/spt%20dp%20raw.png"/></g></svg>