<svg id="Layer_1" data-name="Layer 1" xmlns="http://www.w3.org/2000/svg" viewBox="0 0 1000 1000"><defs><style>.cls-1{fill:#ec0000;}.cls-2,.cls-3{fill:#0d5ba1;}.cls-3{font-size:150.84px;font-family:Montserrat-ExtraBold, Montserrat;font-weight:800;letter-spacing:0.01em;}.cls-4{letter-spacing:0em;}.cls-5{letter-spacing:0.02em;}.cls-6{letter-spacing:-0.02em;}</style></defs><path class="cls-1" d="M57.1,565.8a24.94,24.94,0,0,0,1.73-3.9A29.79,29.79,0,0,1,66.68,548c13.4-13.33,26.73-26.73,40.29-39.9,12.52-12.16,30.85-11.78,43.37.81q47.21,47.48,94.29,95.08c1.31,1.33,2.66,2.62,4.34,4.27l491.41-487c-.87-1-1.63-2-2.5-2.9q-8.88-9-17.8-18A20.07,20.07,0,0,1,714,86.77c-.31-6.29,1.6-9.11,7.52-11q29.6-9.66,59.21-19.28Q859,31,937.22,5.45c1.6-.53,3.23-1,5.68-1.74-.62,2.38-1,4-1.47,5.59Q918.62,83.21,895.8,157.08q-11.06,35.8-22.09,71.61c-2.11,6.87-6.12,9.26-13.16,7.83a22.09,22.09,0,0,1-11.74-6.25c-7.63-7.79-15.33-15.51-23-23.24-.81-.82-1.68-1.58-2.9-2.72-1.39,1.31-2.74,2.54-4,3.82q-84,83.19-167.94,166.39Q461.32,562.44,271.75,750.39c-4.75,4.71-9.94,8.47-16.59,9.87-10.78,2.25-20.18-.51-28-8.15-7.71-7.49-15.31-15.11-22.88-22.75q-67.89-68.45-135.76-136.9c-4.71-4.75-8.39-10-9.83-16.62a14.17,14.17,0,0,0-1.54-3.06Z"/><path class="cls-2" d="M272.59,779.39c-.13-9,3.21-16.26,9.42-22.39q32.26-31.89,64.45-63.85L732.83,310.37c1.55-1.53,3.07-3.11,4.7-4.55,11.72-10.37,29.21-10.34,40.4.59q20.9,20.41,41.14,41.5c11.33,11.83,10.81,29.89-.92,41.67-16,16.07-32.19,32-48.3,47.93L481.39,723.29Q423,781.15,364.59,839c-4.77,4.73-10.11,8.16-16.82,9.4-10,1.87-18.93-.54-26.11-7.58-13.92-13.63-27.57-27.54-41.18-41.47A27.43,27.43,0,0,1,272.59,779.39Z"/><path class="cls-2" d="M641.05,582.27c1.6,1.53,2.77,2.61,3.9,3.73L815.36,754.83c1.34,1.33,2.72,2.63,4,4,10.46,11.62,10.59,29.14-.24,40.43Q798.88,820.39,778,840.81c-11.72,11.43-29.76,11.08-41.65-.56-17.77-17.4-35.37-35-53-52.45Q623,728.09,562.77,668.38c-1.33-1.32-2.6-2.68-4.24-4.37Z"/><path class="cls-2" d="M371.91,469.86c-1.24-1.13-2.13-1.87-2.94-2.69q-39.44-39.78-78.87-79.55a29.67,29.67,0,0,1-8.62-16.27c-1.71-10.33,1.06-19.28,8.43-26.7,9.11-9.17,18.34-18.23,27.52-27.33,4-4,8-8,12.09-12,12.57-12.15,30.65-12.22,43,.11q39.86,40,79.49,80.16c.7.71,1.32,1.49,2.31,2.61Z"/><text class="cls-3" transform="translate(101.13 996.29) scale(0.94 1)">SALES<tspan class="cls-4" x="515.4" y="0">P</tspan><tspan class="cls-5" x="626.72" y="0">L</tspan><tspan class="cls-6" x="721.6" y="0">A</tspan><tspan x="836.54" y="0">T</tspan></text></svg>