<svg id="Layer_1" data-name="Layer 1" xmlns="http://www.w3.org/2000/svg" viewBox="0 0 1595.29 996.29"><defs><style>.cls-1{fill:#ec0000;}.cls-2,.cls-3{fill:#0d5ba1;}.cls-3{font-size:196.69px;font-family:Montserrat-ExtraBold, Montserrat;font-weight:800;letter-spacing:0.01em;}.cls-4{letter-spacing:0em;}.cls-5{letter-spacing:0.02em;}.cls-6{letter-spacing:-0.02em;}</style></defs><path class="cls-1" d="M0,486.6a13,13,0,0,0,.9-2A15.52,15.52,0,0,1,5,477.36c7-6.92,13.89-13.88,20.93-20.72,6.5-6.32,16-6.12,22.53.42q24.51,24.66,49,49.39c.69.69,1.38,1.36,2.26,2.22l255.26-253c-.45-.53-.85-1-1.3-1.51q-4.61-4.68-9.25-9.33a10.52,10.52,0,0,1-3.16-7.07c-.16-3.27.84-4.73,3.91-5.73l30.75-10,81.3-26.49c.83-.27,1.68-.51,2.95-.9-.32,1.23-.51,2.08-.77,2.9q-11.83,38.39-23.7,76.77-5.75,18.6-11.47,37.2c-1.1,3.56-3.18,4.8-6.84,4.06a11.4,11.4,0,0,1-6.09-3.25q-6-6.06-12-12.07c-.42-.42-.87-.82-1.51-1.41-.72.68-1.42,1.32-2.09,2q-43.62,43.2-87.24,86.43Q210,484.85,111.5,582.48a17.19,17.19,0,0,1-8.62,5.12,15.3,15.3,0,0,1-14.56-4.22c-4-3.9-8-7.86-11.89-11.82Q41.17,536,5.91,500.45A17.44,17.44,0,0,1,.8,491.81a7.19,7.19,0,0,0-.8-1.59Z"/><path class="cls-2" d="M111.94,597.54a15.4,15.4,0,0,1,4.89-11.63q16.77-16.56,33.48-33.16L351,353.91c.8-.79,1.59-1.61,2.44-2.36a15.35,15.35,0,0,1,21,.3q10.85,10.61,21.37,21.56a15.3,15.3,0,0,1-.48,21.65c-8.32,8.35-16.72,16.6-25.09,24.89L220.4,568.4q-30.35,30.06-60.67,60.12A16.44,16.44,0,0,1,151,633.4a14.62,14.62,0,0,1-13.56-3.93c-7.23-7.08-14.32-14.31-21.39-21.55A14.21,14.21,0,0,1,111.94,597.54Z"/><path class="cls-2" d="M303.33,495.15c.84.8,1.44,1.36,2,1.94l88.52,87.7c.7.69,1.41,1.36,2.07,2.09a15.38,15.38,0,0,1-.13,21q-10.5,11-21.37,21.56c-6.09,5.94-15.46,5.75-21.64-.29-9.22-9-18.36-18.16-27.54-27.25l-62.6-62c-.69-.68-1.35-1.39-2.2-2.27Z"/><path class="cls-2" d="M163.53,436.76c-.65-.59-1.11-1-1.53-1.4Q141.51,414.7,121,394a15.4,15.4,0,0,1-4.48-8.45,15.17,15.17,0,0,1,4.37-13.87c4.74-4.77,9.53-9.47,14.3-14.2,2.09-2.07,4.16-4.16,6.28-6.21,6.53-6.31,15.92-6.35,22.31.06q20.7,20.76,41.29,41.64c.36.36.69.77,1.2,1.35Z"/><text class="cls-3" transform="translate(455.46 631.85) scale(0.94 1)">SALES<tspan class="cls-4" x="672.08" y="0">P</tspan><tspan class="cls-5" x="817.24" y="0">L</tspan><tspan class="cls-6" x="940.96" y="0">A</tspan><tspan x="1090.84" y="0">T</tspan></text></svg>