<svg width="144" height="144" viewBox="0 0 144 144" fill="none" xmlns="http://www.w3.org/2000/svg">
<g clip-path="url(#clip0_1002_350)">
<path d="M129.6 83.0161C129.6 80.4149 125.622 78.4534 120.347 78.4534C115.073 78.4534 111.095 80.4157 111.095 83.0161H111.096C111.092 83.0997 111.092 83.1841 111.096 83.2676C111.093 83.3102 111.093 83.352 111.096 83.3938V89.4511C111.096 89.6897 111.191 89.9187 111.359 90.0875C111.528 90.2562 111.757 90.3511 111.996 90.3511C112.213 90.3462 112.42 90.2627 112.581 90.1172C114.201 91.3499 117.008 92.1334 120.348 92.1334L120.347 92.1326C122.952 92.2451 125.534 91.6215 127.8 90.3326V92.1776C127.8 93.3026 124.902 94.9403 120.347 94.9403H119.951L119.952 94.9411C119.507 94.9548 119.061 94.9307 118.62 94.8688C118.122 94.8045 117.667 95.1549 117.602 95.6523C117.538 96.1489 117.888 96.6045 118.386 96.6688C118.818 96.7307 119.254 96.7612 119.691 96.7588H120.348H120.347C122.952 96.8713 125.534 96.2469 127.8 94.9588V96.8038C127.8 97.9288 124.902 99.5666 120.347 99.5666H119.951L119.952 99.5674C119.507 99.581 119.061 99.5569 118.62 99.495C118.122 99.4308 117.667 99.7811 117.602 100.278C117.538 100.775 117.888 101.231 118.386 101.295C118.818 101.357 119.254 101.387 119.691 101.385H120.348H120.347C122.952 101.497 125.534 100.873 127.8 99.585V101.43C127.8 102.555 124.902 104.193 120.347 104.193H119.951H119.952C119.507 104.207 119.061 104.183 118.62 104.121C118.122 104.056 117.667 104.407 117.602 104.904C117.538 105.401 117.888 105.856 118.386 105.921C118.818 105.983 119.254 106.013 119.691 106.011H120.348H120.347C122.952 106.123 125.534 105.499 127.8 104.211V106.056C127.8 107.181 124.902 108.819 120.347 108.819H119.951H119.952C119.504 108.833 119.055 108.809 118.611 108.747C118.113 108.682 117.659 109.033 117.594 109.53C117.529 110.028 117.88 110.482 118.377 110.547C118.812 110.609 119.251 110.64 119.691 110.637H120.348C125.622 110.637 129.601 108.675 129.601 106.075L129.6 83.3948C129.603 83.353 129.603 83.3112 129.6 83.2686C129.604 83.185 129.604 83.1007 129.6 83.0171L129.6 83.0161ZM120.347 80.2534C124.892 80.2534 127.8 81.891 127.8 83.0161C127.8 84.1412 124.902 85.7789 120.347 85.7789C115.793 85.7789 112.895 84.1412 112.895 83.0161C112.896 81.8911 115.802 80.2525 120.347 80.2525V80.2534ZM120.347 90.3422C115.802 90.3422 112.895 88.7045 112.895 87.5795V85.7795L112.896 85.7787C115.161 87.0668 117.744 87.6912 120.347 87.5787C122.952 87.6912 125.534 87.0668 127.8 85.7787V87.5787C127.8 88.7037 124.902 90.3422 120.347 90.3422L120.347 90.3422Z" fill="white"/>
<path d="M107.2 92.2854C101.926 92.2854 97.9471 94.2477 97.9471 96.8481H97.948C97.9431 96.9325 97.9431 97.0161 97.948 97.1005C97.9447 97.1423 97.9447 97.184 97.948 97.2266V110.628C97.948 113.229 101.926 115.191 107.2 115.191C112.474 115.191 116.453 113.228 116.453 110.628L116.452 97.1995C116.455 97.1577 116.455 97.1151 116.452 97.0733C116.456 96.9898 116.456 96.9054 116.452 96.8218C116.443 94.2471 112.501 92.2856 107.2 92.2856V92.2854ZM114.652 106.019C114.652 107.144 111.745 108.782 107.2 108.782C102.655 108.782 99.7471 107.144 99.7471 106.019V104.174H99.7479C102.013 105.462 104.596 106.086 107.2 105.974C109.803 106.086 112.386 105.462 114.652 104.174L114.652 106.019ZM114.652 101.402C114.652 102.527 111.745 104.165 107.2 104.165C102.655 104.165 99.7471 102.527 99.7471 101.402V99.602H99.7479C102.013 100.891 104.596 101.515 107.2 101.402C109.803 101.515 112.386 100.891 114.652 99.602L114.652 101.402ZM107.2 94.0759C111.745 94.0759 114.652 95.7136 114.652 96.8387C114.652 97.9638 111.745 99.6014 107.2 99.6014C102.655 99.6014 99.7471 97.9638 99.7471 96.8387C99.7479 95.7145 102.646 94.0856 107.2 94.0856V94.0759ZM107.2 113.39C102.655 113.39 99.7471 111.752 99.7471 110.627V108.782H99.7479C102.013 110.071 104.596 110.695 107.2 110.582C109.803 110.695 112.386 110.071 114.652 108.782V110.627C114.643 111.762 111.745 113.4 107.2 113.4L107.2 113.39Z" fill="white"/>
<path d="M15.9386 3.9963L16.8386 3.0963V33.3898C16.8386 33.6285 16.9334 33.8575 17.1022 34.0262C17.2709 34.195 17.5 34.2898 17.7386 34.2898H48.0774L47.1774 35.1898C46.9869 35.3529 46.8736 35.5884 46.864 35.8383C46.8543 36.089 46.9492 36.3325 47.1267 36.51C47.3043 36.6868 47.547 36.7825 47.7977 36.7728C48.0485 36.7632 48.2839 36.6491 48.447 36.4586L50.9131 33.9925H50.9123C51.2618 33.6422 51.2618 33.0748 50.9123 32.7237L48.4462 30.2576H48.447C48.0894 29.9522 47.5574 29.9723 47.2248 30.305C46.8921 30.6377 46.872 31.1696 47.1774 31.5272L48.0774 32.4272H18.6664V27.1798L28.1076 15.2998C29.002 15.5988 29.988 15.3248 30.6003 14.6072L37.4314 17.5948C37.3905 18.2561 37.6251 18.9054 38.0791 19.3883C38.5339 19.8713 39.1672 20.1445 39.8301 20.1445C40.4922 20.1445 41.1263 19.8713 41.5803 19.3883C42.0343 18.9054 42.2689 18.2561 42.2279 17.5948C42.2247 17.1938 42.1195 16.8008 41.9226 16.4521L48.1327 5.97586L49.15 10.3586H49.1492C49.2472 10.774 49.6233 11.0633 50.0492 11.0521H50.2565C50.4895 10.9983 50.6912 10.8544 50.8174 10.6519C50.9444 10.4494 50.9854 10.2043 50.9315 9.97209L49.4015 3.49209C49.3919 3.26387 49.2914 3.04933 49.1219 2.89745C48.9523 2.74477 48.7289 2.66682 48.5015 2.68209C48.4412 2.67566 48.381 2.67566 48.3215 2.68209L41.7243 4.21209C41.2397 4.32379 40.9376 4.80753 41.0493 5.29209C41.161 5.77665 41.6447 6.07878 42.1293 5.96708L46.7105 4.90475L40.5004 15.2997C39.6559 15.0281 38.7302 15.2627 38.1154 15.9024L31.203 12.8786C31.1732 11.5567 30.0771 10.5088 28.7554 10.5386C27.4336 10.5684 26.3855 11.6644 26.4154 12.987C26.4194 13.3808 26.5214 13.7673 26.7127 14.112L18.6666 24.2996V3.06782L19.5666 3.96782C19.9169 4.32622 20.4907 4.33183 20.8491 3.98148C21.2067 3.63113 21.2131 3.05657 20.8628 2.69898L18.3966 0.260235C18.2271 0.0842528 17.9933 -0.0153809 17.7482 -0.0153809C17.5039 -0.0153809 17.2701 0.084261 17.1005 0.260235L14.6618 2.69898C14.4898 2.86853 14.3926 3.09915 14.3902 3.34023C14.3885 3.58211 14.4834 3.81434 14.6529 3.9863C15.0057 4.34389 15.5818 4.3479 15.9394 3.99514L15.9386 3.9963ZM39.8344 17.0102C40.0787 17.0102 40.2981 17.1573 40.3913 17.3823C40.4853 17.6081 40.4331 17.8668 40.2611 18.0396C40.0883 18.2123 39.8288 18.2638 39.6038 18.1706C39.3788 18.0774 39.2317 17.8572 39.2317 17.6129C39.2317 17.453 39.2952 17.3003 39.4085 17.187C39.521 17.0737 39.6745 17.0102 39.8344 17.0102L39.8344 17.0102ZM28.8005 12.4115C29.0448 12.4115 29.2642 12.5585 29.3574 12.7835C29.4506 13.0085 29.3992 13.2681 29.2272 13.4408C29.0544 13.6128 28.7949 13.665 28.5699 13.571C28.3441 13.4778 28.1978 13.2584 28.1978 13.0141C28.1978 12.6815 28.4678 12.4115 28.8005 12.4115L28.8005 12.4115Z" fill="white"/>
<path d="M114.976 69.9388C114.835 69.1015 114.321 68.3735 113.581 67.9588C111.223 66.51 105.813 65.2588 100.567 67.9588C98.0289 69.2277 95.4639 70.7761 93.1142 72.2249C93.0668 71.9019 92.9471 71.5941 92.7631 71.3249C92.1781 70.4249 91.0081 70.0288 89.2892 70.0288C87.0216 70.0288 82.3953 72.4949 76.5816 75.726C74.1965 77.0487 71.2443 78.6961 70.6054 78.786L69.8854 78.696C71.1213 73.0502 71.2522 67.2194 70.2727 61.5236C70.5073 59.1587 71.4202 56.9119 72.9003 55.0525C74.5613 57.4729 77.0209 59.2318 79.8479 60.0209C81.189 60.4026 82.5761 60.5938 83.9702 60.5874C87.1878 60.5593 90.3329 59.6231 93.0426 57.8874C98.5238 54.4135 103.285 46.1874 107.11 39.6175C109.549 35.4147 111.853 31.4547 113.41 30.5362C114.679 29.7712 114.247 28.8712 114.148 28.7362C112.581 25.9912 89.1904 28.1874 80.9659 32.6512C70.2735 38.4385 67.6274 44.3697 71.7851 53.0996C71.7851 53.1896 71.8839 53.2796 71.9289 53.3696C70.8979 54.5404 70.0646 55.8719 69.4636 57.3119C69.3736 56.9398 69.2804 56.5646 69.1848 56.1869C67.5021 49.7431 65.8547 44.3696 64.6848 40.6345C68.0959 38.5821 69.1848 34.3345 67.6372 28.9345C67.0249 26.8557 63.7223 21.7345 61.0759 18.0357C55.0732 9.57572 54.1187 9.80962 53.5433 9.93572C53.3721 9.93572 52.5533 10.233 52.7695 11.4384H52.7687C52.9109 13.2167 52.8747 15.0047 52.6602 16.7757C52.3363 21.1584 51.8863 27.1529 53.5602 32.823C55.0813 38.043 57.9429 40.023 59.509 40.7342V40.7334C60.3182 41.1311 61.2006 41.3586 62.1014 41.3995C62.4004 41.4285 62.7025 41.4285 63.0014 41.3995C64.1988 45.0983 65.8187 50.3995 67.5014 56.6996C67.9338 58.3557 68.2576 59.9572 68.5003 61.4871C68.4882 61.6286 68.5099 61.77 68.5638 61.9018C69.4541 67.3476 69.295 72.913 68.0953 78.2995C68.0937 78.3324 68.0937 78.3654 68.0953 78.3983L66.6015 78.2995C64.5316 78.1018 62.1739 77.8856 59.0238 77.4622C57.8449 77.0837 56.7247 76.5445 55.6937 75.8606C48.7306 71.748 41.0493 68.999 33.0589 67.7606C20.7553 65.5821 15.1753 67.9318 14.9417 68.0306C14.5142 68.2452 14.3285 68.757 14.5206 69.1958C14.7118 69.6338 15.2133 69.8459 15.6617 69.6771C15.7155 69.6771 21.0617 67.4447 32.7617 69.461V69.4618C40.549 70.6824 48.0327 73.3767 54.8122 77.3995C56.6122 78.4168 57.7909 79.0918 58.7899 79.1995C61.9848 79.6222 64.3522 79.8471 66.44 80.0456C69.9081 80.3036 73.3524 80.8147 76.745 81.5756C82.8288 82.953 86.8074 85.3556 87.9412 88.3432C88.6026 90.2011 88.2627 92.267 87.0412 93.8156C85.4936 95.9668 78.9412 94.1933 74.0901 92.9156C72.0144 92.2672 69.8851 91.8067 67.7273 91.5383C60.9316 91.3013 54.1292 91.8019 47.4412 93.0322C46.9446 93.1294 46.62 93.6107 46.7172 94.1082C46.8136 94.6048 47.295 94.9294 47.7924 94.8322C54.3197 93.6308 60.9589 93.1423 67.5924 93.3745C69.6206 93.6469 71.6232 94.0897 73.5775 94.6972C77.0425 95.5972 80.7775 96.6322 83.7387 96.6683C74.7387 102.257 66.1076 106.667 62.0667 106.667C53.589 106.667 16.0772 87.5871 15.6987 87.3982C15.2592 87.1901 14.7328 87.3685 14.511 87.8016C14.2901 88.2355 14.4532 88.7659 14.8799 89.0005C16.4372 89.7929 53.1571 108.468 62.0666 108.468C72.4616 108.468 110.883 81.5934 113.475 75.5721V75.5713C113.843 74.8103 114.016 73.969 113.978 73.1237C114.702 72.2261 115.058 71.0875 114.977 69.9376L114.976 69.9388ZM81.7835 34.2001C88.2458 30.6902 101.376 29.3127 108.298 29.3127H108.299C109.462 29.295 110.626 29.3585 111.782 29.5024C109.982 31.0412 108.029 34.4885 105.563 38.7274C101.837 45.1535 97.1927 53.1274 92.0628 56.3763C88.6011 58.6206 84.3549 59.306 80.3628 58.2663C77.7978 57.5471 75.5896 55.9061 74.1616 53.6578C75.8177 52.0756 77.7817 50.8503 79.9304 50.0578C80.3844 49.8907 80.6255 49.3941 80.4752 48.9345C80.325 48.474 79.838 48.2153 79.3727 48.3478C77.1251 49.1619 75.056 50.4026 73.2793 52.0026C69.7517 44.3613 72.0828 39.5013 81.7843 34.2003L81.7835 34.2001ZM62.7035 34.9651C62.5115 34.5287 62.0116 34.3182 61.5648 34.4854C61.118 34.6525 60.8794 35.1395 61.0208 35.5951C61.0208 35.5951 61.5608 37.0713 62.3981 39.5824C61.634 39.6258 60.8722 39.474 60.1834 39.1413C58.8961 38.5563 56.5384 36.8912 55.2158 32.364C53.6497 26.964 54.082 21.1952 54.397 16.9468C54.5232 15.2995 54.622 13.8868 54.6043 12.708C57.6555 16.0556 64.9904 26.5318 65.8544 29.4754C67.1321 33.8042 66.4667 37.1527 64.0544 38.8628C63.2348 36.4415 62.7221 35.0377 62.7036 35.0015L62.7035 34.9651ZM77.1035 79.8026C75.8974 79.5326 74.8174 79.3164 73.8096 79.1364C74.7096 78.6414 75.9246 77.9937 77.4096 77.1653C81.5673 74.8526 87.2646 71.6929 89.2446 71.6929C90.7473 71.6929 91.1434 72.0802 91.2246 72.1967V72.1975C91.3041 72.3373 91.3202 72.5045 91.2696 72.6571C91.2029 72.8492 91.2029 73.0589 91.2696 73.251C89.8569 74.151 88.5696 74.9337 87.3997 75.5459C85.5997 76.5359 79.2997 79.3983 77.9496 80.0459L77.1035 79.8026ZM111.799 74.7803C110.638 77.4803 100.532 85.5175 89.5163 92.8527C90.1921 91.2022 90.2178 89.3564 89.5886 87.6874C88.9972 86.2314 88.0353 84.957 86.7987 83.9879C92.2615 81.0177 95.3126 79.0379 97.5987 77.5706V77.5714C99.8569 75.9715 102.306 74.6593 104.889 73.6653C109.227 72.0003 111.441 72.1176 112.026 72.7653C112.449 73.2064 112.089 74.2415 111.845 74.8176L111.799 74.7803ZM112.952 71.1803C111.07 69.7941 107.2 70.8203 104.204 71.9726C101.501 73.014 98.9373 74.3865 96.5716 76.0587C94.2493 77.5799 91.064 79.6587 85.1592 82.8263V82.8271C83.7329 81.9922 82.2173 81.3188 80.6415 80.8198C83.0891 79.6948 86.8876 77.9309 88.2916 77.1659C89.6956 76.4008 91.3428 75.3659 93.0889 74.3036C95.6451 72.7197 98.5516 70.9286 101.369 69.5248C105.932 67.2476 110.702 68.2922 112.636 69.5248C112.927 69.6622 113.134 69.9298 113.194 70.2448C113.218 70.5864 113.15 70.9287 112.996 71.2348L112.952 71.1803Z" fill="white"/>
<path d="M47.7009 55.7999C47.3835 55.865 47.1263 56.0948 47.0259 56.4026C46.7382 57.3026 45.3247 61.7039 45.6397 63.2603V63.2611C45.7972 64.0502 46.2231 64.7614 46.8451 65.2732C47.4663 65.7843 48.2457 66.0656 49.051 66.0688C49.284 66.068 49.5162 66.0439 49.7437 65.9973C50.6437 65.806 51.432 65.2684 51.9374 64.5002C52.4428 63.7312 52.6253 62.795 52.4436 61.8926C52.1287 60.3353 49.1224 56.7898 48.5287 56.0964V56.0972C48.3238 55.8609 48.0096 55.7484 47.701 55.7999L47.7009 55.7999ZM50.4009 63.5037C50.0208 64.0686 49.3386 64.3499 48.6708 64.2181C48.003 64.0863 47.4791 63.5672 47.3409 62.9011C47.4237 61.4 47.7178 59.9182 48.2136 58.4998C49.2052 59.6144 50.0353 60.8622 50.6797 62.2074C50.7689 62.6598 50.6684 63.1283 50.4008 63.5036L50.4009 63.5037Z" fill="white"/>
<path d="M75.2667 23.6244C75.8364 24.0053 76.5066 24.2094 77.1921 24.2094C77.4251 24.2086 77.6573 24.1845 77.8855 24.137C78.7855 23.9466 79.5738 23.409 80.0793 22.6408C80.5847 21.8718 80.7663 20.9348 80.5855 20.0332C80.2705 18.4759 77.2643 14.9304 76.6617 14.237C76.4496 13.9903 76.1217 13.877 75.8027 13.9405C75.4837 14.0031 75.2233 14.2338 75.1221 14.5431C74.8344 15.4431 73.4209 19.8444 73.7359 21.4008L73.7367 21.4016C73.9248 22.3185 74.4768 23.1205 75.2667 23.6244L75.2667 23.6244ZM76.3917 16.6856C77.3833 17.8002 78.2134 19.048 78.857 20.3932C78.9823 21.2812 78.3941 22.1121 77.5158 22.2888C76.6367 22.4656 75.7729 21.9264 75.5455 21.0594C75.6234 19.5655 75.9119 18.0901 76.4005 16.6766L76.3917 16.6856Z" fill="white"/>
<path d="M128.61 68.2293C128.73 67.5695 128.841 66.909 128.943 66.2493C128.988 65.9343 129.042 65.6193 129.078 65.3493C129.114 65.0793 129.168 64.6116 129.213 64.242C129.276 63.6746 129.339 63.1081 129.393 62.532V62.5328C130.481 49.9914 127.43 37.4397 120.707 26.7961C113.985 16.1536 103.961 8.00613 92.1684 3.59973C90.476 2.96973 88.7395 2.41206 87.0208 1.94357C86.5483 1.83348 86.0734 2.11794 85.9472 2.58642C85.821 3.05409 86.0886 3.53865 86.5523 3.68088C88.2261 4.13088 89.9095 4.67088 91.5472 5.29204C101.551 9.03748 110.271 15.5722 116.673 24.1221C123.075 32.672 126.893 42.8783 127.673 53.531V53.576C127.763 54.9083 127.816 56.276 127.816 57.5988C127.813 59.746 127.687 61.8914 127.439 64.0249C127.439 64.3672 127.358 64.7087 127.313 65.0422C127.268 65.3749 127.223 65.6722 127.169 65.9872C127.07 66.6172 126.971 67.2472 126.854 67.8772L126.809 68.1295C126.646 68.9484 126.476 69.7584 126.278 70.5771V70.5763C125.838 72.4301 125.304 74.259 124.676 76.0576C124.511 76.5277 124.76 77.0411 125.229 77.205C125.699 77.369 126.212 77.1215 126.376 76.6514C127.311 73.9738 128.045 71.2304 128.573 68.4438L128.61 68.2293Z" fill="white"/>
<path d="M75.0693 1.8001C76.4466 1.87242 77.832 2.00742 79.2004 2.18742H79.3177C79.8144 2.21957 80.2435 1.84269 80.2756 1.34527C80.3085 0.848655 79.9317 0.419555 79.4343 0.387423C78.0216 0.242781 76.5905 0.107775 75.1682 0.000103933C74.9223 -0.0119497 74.6812 0.0772468 74.5028 0.247599C74.3244 0.417153 74.2231 0.653411 74.2231 0.900104C74.2223 1.37662 74.5936 1.77118 75.0693 1.8001H75.0693Z" fill="white"/>
<path d="M15.7948 66.0158H15.9121C16.4031 65.9507 16.7495 65.4999 16.686 65.0081C15.6429 57.3566 16.2159 49.5724 18.3686 42.1574C18.449 41.9236 18.4305 41.6672 18.3164 41.4487C18.2023 41.2293 18.003 41.067 17.766 40.9987C17.5281 40.9312 17.2734 40.9633 17.0604 41.0887C16.8483 41.214 16.6964 41.4213 16.641 41.6624C14.4207 49.3148 13.8284 57.3473 14.9036 65.2414C14.9663 65.6849 15.3464 66.0152 15.7948 66.0152L15.7948 66.0158Z" fill="white"/>
<path d="M64.7998 112.941C63.5759 112.789 62.361 112.581 61.1998 112.348C58.2426 111.704 55.3322 110.862 52.4873 109.828C46.6815 107.669 41.2767 104.557 36.4947 100.62C36.3131 100.451 36.0696 100.363 35.8221 100.379C35.5738 100.395 35.344 100.513 35.1857 100.705C35.0274 100.897 34.9559 101.145 34.9872 101.392C35.0185 101.637 35.1503 101.86 35.352 102.006C39.3264 105.282 43.7252 108.006 48.4285 110.106C53.5841 112.403 59.038 113.96 64.6285 114.732H64.7458C65.2424 114.765 65.6715 114.388 65.7044 113.89C65.7366 113.394 65.3597 112.965 64.8623 112.932L64.7998 112.941Z" fill="white"/>
<path d="M76.1306 113.202C74.763 113.32 73.3679 113.382 71.9906 113.4H71.8733C71.6346 113.418 71.4128 113.53 71.257 113.711C71.1011 113.893 71.0231 114.129 71.0408 114.368C71.0786 114.865 71.5117 115.237 72.0083 115.2C73.4306 115.2 74.8706 115.119 76.2832 114.993C76.7774 114.95 77.1439 114.516 77.1021 114.021C77.0595 113.527 76.6248 113.161 76.1306 113.202L76.1306 113.202Z" fill="white"/>
</g>
<defs>
<clipPath id="clip0_1002_350">
<rect width="144" height="144" fill="white"/>
</clipPath>
</defs>
</svg>
