<svg width="144" height="144" viewBox="0 0 144 144" fill="none" xmlns="http://www.w3.org/2000/svg">
<path d="M83.9356 31.1347C86.3574 25.9451 87.7413 20.0648 87.7413 14.1834C83.9356 16.9509 79.4388 18.6809 74.9411 19.373C78.4004 22.4869 81.5143 26.638 83.9356 31.1349V31.1347ZM65.6004 26.6371L67.3305 35.6316H76.6712L78.4013 26.6371C76.6712 24.2153 74.5956 21.794 72.1743 19.7183C69.7525 21.794 67.6768 24.2159 65.6011 26.6371H65.6004ZM67.3305 37.707L62.4874 90.9829L72.1737 101.016L81.5143 90.9829L76.6712 37.707H67.3305ZM69.0606 19.3719C64.5631 18.68 60.0662 16.9501 56.6069 14.1824C56.2606 20.0637 57.6451 25.9443 60.0662 31.1336C62.4881 26.6361 65.6011 22.4848 69.0606 19.3717V19.3719Z" fill="#0D5BA1"/>
</svg>
