<svg width="144" height="144" viewBox="0 0 144 144" fill="none" xmlns="http://www.w3.org/2000/svg">
<path d="M102.493 32.9576C101.327 32.4248 100.203 31.8053 99.1292 31.103C96.664 29.5014 95.673 27.728 98.046 26.1376C100.419 24.5482 108.253 19.0526 109.566 17.7741H109.567C110.1 17.2148 110.812 16.8597 111.58 16.7689C112.347 16.6789 113.123 16.8589 113.771 17.2791C114.923 18.0047 114.462 20.5393 114.439 21.1387C114.277 25.9191 114.07 29.9402 113.771 34.6974C113.598 37.3122 111.663 37.8304 109.233 36.6669C107.769 35.9646 106.364 35.2848 104.97 34.5592C101.514 39.7319 81.377 70.697 80.6529 71.6988H80.6521C80.264 72.046 79.7537 72.2228 79.2338 72.1906C78.7147 72.1577 78.2293 71.919 77.8878 71.5261C77.3695 70.7193 72.761 62.6787 71.2864 60.248C69.5467 62.9319 54.0988 86.6062 52.5319 89.048C52.0827 89.7391 50.85 91.5824 50.0898 91.6058C48.9954 91.6058 47.7861 89.3936 47.2444 88.5185C45.4356 85.2818 44.1684 83.1386 42.3603 80.0054C39.6531 84.118 32.6146 94.9816 31.7965 96.133C30.9785 97.2853 30.2528 98.0334 29.2732 97.2853C28.2937 96.5364 28.8698 95.1889 29.3769 94.4053C31.9002 90.6037 38.2129 81.0652 39.411 79.107C40.2178 77.7819 41.542 76.5958 42.7859 76.5837C44.0299 76.5724 45.0897 78.7838 45.7583 79.8895C47.4402 82.6658 48.5233 84.7045 50.0896 87.4584C51.1383 85.811 66.448 62.2069 68.2567 59.4874C68.9477 58.4387 69.7312 56.7569 70.7565 56.2161C72.0125 55.5596 73.0603 57.3684 73.7402 58.5199C75.6061 61.7566 77.427 65.0867 79.4311 68.3693C86.8609 57.2759 94.8909 44.3624 102.494 32.9576L102.493 32.9576Z" fill="#2D2D2D"/>
</svg>
