<svg width="144" height="144" viewBox="0 0 144 144" fill="none" xmlns="http://www.w3.org/2000/svg">
<g clip-path="url(#clip0_988_274)">
<path d="M129.6 83.0161C129.6 80.4149 125.622 78.4534 120.348 78.4534C115.074 78.4534 111.095 80.4157 111.095 83.0161H111.096C111.092 83.0997 111.092 83.1841 111.096 83.2676C111.093 83.3102 111.093 83.352 111.096 83.3938V89.4511C111.096 89.6897 111.191 89.9187 111.36 90.0875C111.528 90.2562 111.757 90.3511 111.996 90.3511C112.213 90.3462 112.42 90.2627 112.581 90.1172C114.201 91.3499 117.009 92.1334 120.348 92.1334L120.348 92.1326C122.952 92.2451 125.535 91.6215 127.8 90.3326V92.1776C127.8 93.3026 124.902 94.9403 120.348 94.9403H119.951L119.952 94.9411C119.507 94.9548 119.061 94.9307 118.62 94.8688C118.122 94.8045 117.668 95.1549 117.603 95.6523C117.538 96.1489 117.889 96.6045 118.386 96.6688C118.818 96.7307 119.254 96.7612 119.691 96.7588H120.348H120.348C122.952 96.8713 125.535 96.2469 127.8 94.9588V96.8038C127.8 97.9288 124.902 99.5666 120.348 99.5666H119.951L119.952 99.5674C119.507 99.581 119.061 99.5569 118.62 99.495C118.122 99.4308 117.668 99.7811 117.603 100.278C117.538 100.775 117.889 101.231 118.386 101.295C118.818 101.357 119.254 101.387 119.691 101.385H120.348H120.348C122.952 101.497 125.535 100.873 127.8 99.585V101.43C127.8 102.555 124.902 104.193 120.348 104.193H119.951H119.952C119.507 104.207 119.061 104.183 118.62 104.121C118.122 104.056 117.668 104.407 117.603 104.904C117.538 105.401 117.889 105.856 118.386 105.921C118.818 105.983 119.254 106.013 119.691 106.011H120.348H120.348C122.952 106.123 125.535 105.499 127.8 104.211V106.056C127.8 107.181 124.902 108.819 120.348 108.819H119.951H119.952C119.504 108.833 119.055 108.809 118.611 108.747C118.114 108.682 117.659 109.033 117.594 109.53C117.529 110.028 117.88 110.482 118.377 110.547C118.812 110.609 119.252 110.64 119.691 110.637H120.348C125.622 110.637 129.601 108.675 129.601 106.075L129.6 83.3948C129.603 83.353 129.603 83.3112 129.6 83.2686C129.604 83.185 129.604 83.1007 129.6 83.0171L129.6 83.0161ZM120.348 80.2534C124.893 80.2534 127.8 81.891 127.8 83.0161C127.8 84.1412 124.902 85.7789 120.348 85.7789C115.794 85.7789 112.895 84.1412 112.895 83.0161C112.896 81.8911 115.803 80.2525 120.348 80.2525V80.2534ZM120.348 90.3422C115.803 90.3422 112.895 88.7045 112.895 87.5795V85.7795L112.896 85.7787C115.161 87.0668 117.744 87.6912 120.348 87.5787C122.952 87.6912 125.535 87.0668 127.8 85.7787V87.5787C127.8 88.7037 124.902 90.3422 120.348 90.3422L120.348 90.3422Z" fill="#0D5BA1"/>
<path d="M107.2 92.2854C101.926 92.2854 97.9474 94.2477 97.9474 96.8481H97.9482C97.9434 96.9325 97.9434 97.0161 97.9482 97.1005C97.945 97.1423 97.945 97.184 97.9482 97.2266V110.628C97.9482 113.229 101.926 115.191 107.201 115.191C112.474 115.191 116.453 113.228 116.453 110.628L116.452 97.1995C116.455 97.1577 116.455 97.1151 116.452 97.0733C116.456 96.9898 116.456 96.9054 116.452 96.8218C116.443 94.2471 112.501 92.2856 107.2 92.2856V92.2854ZM114.652 106.019C114.652 107.144 111.745 108.782 107.2 108.782C102.655 108.782 99.7474 107.144 99.7474 106.019V104.174H99.7482C102.014 105.462 104.596 106.086 107.2 105.974C109.803 106.086 112.386 105.462 114.652 104.174L114.652 106.019ZM114.652 101.402C114.652 102.527 111.745 104.165 107.2 104.165C102.655 104.165 99.7474 102.527 99.7474 101.402V99.602H99.7482C102.014 100.891 104.596 101.515 107.2 101.402C109.803 101.515 112.386 100.891 114.652 99.602L114.652 101.402ZM107.2 94.0759C111.745 94.0759 114.652 95.7136 114.652 96.8387C114.652 97.9638 111.745 99.6014 107.2 99.6014C102.655 99.6014 99.7474 97.9638 99.7474 96.8387C99.7482 95.7145 102.646 94.0856 107.2 94.0856V94.0759ZM107.2 113.39C102.655 113.39 99.7474 111.752 99.7474 110.627V108.782H99.7482C102.014 110.071 104.596 110.695 107.2 110.582C109.803 110.695 112.386 110.071 114.652 108.782V110.627C114.643 111.762 111.745 113.4 107.2 113.4L107.2 113.39Z" fill="#0D5BA1"/>
<path d="M15.9386 3.9963L16.8386 3.0963V33.3898C16.8386 33.6285 16.9334 33.8575 17.1022 34.0262C17.2709 34.195 17.5 34.2898 17.7386 34.2898H48.0774L47.1774 35.1898C46.9869 35.3529 46.8736 35.5884 46.864 35.8383C46.8543 36.089 46.9492 36.3325 47.1267 36.51C47.3043 36.6868 47.547 36.7825 47.7977 36.7728C48.0485 36.7632 48.2839 36.6491 48.447 36.4586L50.9131 33.9925H50.9123C51.2618 33.6422 51.2618 33.0748 50.9123 32.7237L48.4462 30.2576H48.447C48.0894 29.9522 47.5574 29.9723 47.2248 30.305C46.8921 30.6377 46.872 31.1696 47.1774 31.5272L48.0774 32.4272H18.6664V27.1798L28.1076 15.2998C29.002 15.5988 29.988 15.3248 30.6003 14.6072L37.4314 17.5948C37.3905 18.2561 37.6251 18.9054 38.0791 19.3883C38.5339 19.8713 39.1672 20.1445 39.8301 20.1445C40.4922 20.1445 41.1263 19.8713 41.5803 19.3883C42.0343 18.9054 42.2689 18.2561 42.2279 17.5948C42.2247 17.1938 42.1195 16.8008 41.9226 16.4521L48.1327 5.97586L49.15 10.3586H49.1492C49.2472 10.774 49.6233 11.0633 50.0492 11.0521H50.2565C50.4895 10.9983 50.6912 10.8544 50.8174 10.6519C50.9444 10.4494 50.9854 10.2043 50.9315 9.97209L49.4015 3.49209C49.3919 3.26387 49.2914 3.04933 49.1219 2.89745C48.9523 2.74477 48.7289 2.66682 48.5015 2.68209C48.4412 2.67566 48.381 2.67566 48.3215 2.68209L41.7243 4.21209C41.2397 4.32379 40.9376 4.80753 41.0493 5.29209C41.161 5.77665 41.6447 6.07878 42.1293 5.96708L46.7105 4.90475L40.5004 15.2997C39.6559 15.0281 38.7302 15.2627 38.1154 15.9024L31.203 12.8786C31.1732 11.5567 30.0771 10.5088 28.7554 10.5386C27.4336 10.5684 26.3855 11.6644 26.4154 12.987C26.4194 13.3808 26.5214 13.7673 26.7127 14.112L18.6666 24.2996V3.06782L19.5666 3.96782C19.9169 4.32622 20.4907 4.33183 20.8491 3.98148C21.2067 3.63113 21.2131 3.05657 20.8628 2.69898L18.3966 0.260235C18.2271 0.0842528 17.9933 -0.0153809 17.7482 -0.0153809C17.5039 -0.0153809 17.2701 0.084261 17.1005 0.260235L14.6618 2.69898C14.4898 2.86853 14.3926 3.09915 14.3902 3.34023C14.3885 3.58211 14.4834 3.81434 14.6529 3.9863C15.0057 4.34389 15.5818 4.3479 15.9394 3.99514L15.9386 3.9963ZM39.8344 17.0102C40.0787 17.0102 40.2981 17.1573 40.3913 17.3823C40.4853 17.6081 40.4331 17.8668 40.2611 18.0396C40.0883 18.2123 39.8288 18.2638 39.6038 18.1706C39.3788 18.0774 39.2317 17.8572 39.2317 17.6129C39.2317 17.453 39.2952 17.3003 39.4085 17.187C39.521 17.0737 39.6745 17.0102 39.8344 17.0102L39.8344 17.0102ZM28.8005 12.4115C29.0448 12.4115 29.2642 12.5585 29.3574 12.7835C29.4506 13.0085 29.3992 13.2681 29.2272 13.4408C29.0544 13.6128 28.7949 13.665 28.5699 13.571C28.3441 13.4778 28.1978 13.2584 28.1978 13.0141C28.1978 12.6815 28.4678 12.4115 28.8005 12.4115L28.8005 12.4115Z" fill="#0D5BA1"/>
<path d="M114.976 69.9388C114.835 69.1015 114.322 68.3735 113.581 67.9588C111.223 66.51 105.813 65.2588 100.567 67.9588C98.0292 69.2277 95.4641 70.7761 93.1145 72.2249C93.0671 71.9019 92.9473 71.5941 92.7633 71.3249C92.1783 70.4249 91.0083 70.0288 89.2894 70.0288C87.0218 70.0288 82.3955 72.4949 76.5818 75.726C74.1968 77.0487 71.2446 78.6961 70.6056 78.786L69.8856 78.696C71.1215 73.0502 71.2525 67.2194 70.2729 61.5236C70.5076 59.1587 71.4204 56.9119 72.9005 55.0525C74.5615 57.4729 77.0212 59.2318 79.8481 60.0209C81.1893 60.4026 82.5763 60.5938 83.9704 60.5874C87.188 60.5593 90.3332 59.6231 93.0428 57.8874C98.5241 54.4135 103.285 46.1874 107.11 39.6175C109.549 35.4147 111.853 31.4547 113.41 30.5362C114.679 29.7712 114.248 28.8712 114.148 28.7362C112.582 25.9912 89.1906 28.1874 80.9662 32.6512C70.2737 38.4385 67.6276 44.3697 71.7853 53.0996C71.7853 53.1896 71.8842 53.2796 71.9292 53.3696C70.8982 54.5404 70.0649 55.8719 69.4639 57.3119C69.3739 56.9398 69.2807 56.5646 69.185 56.1869C67.5024 49.7431 65.8549 44.3696 64.685 40.6345C68.0962 38.5821 69.185 34.3345 67.6374 28.9345C67.0251 26.8557 63.7225 21.7345 61.0762 18.0357C55.0734 9.57572 54.1189 9.80962 53.5435 9.93572C53.3724 9.93572 52.5535 10.233 52.7697 11.4384H52.7689C52.9111 13.2167 52.875 15.0047 52.6604 16.7757C52.3366 21.1584 51.8866 27.1529 53.5604 32.823C55.0816 38.043 57.9432 40.023 59.5093 40.7342V40.7334C60.3185 41.1311 61.2008 41.3586 62.1017 41.3995C62.4006 41.4285 62.7028 41.4285 63.0017 41.3995C64.199 45.0983 65.8189 50.3995 67.5017 56.6996C67.934 58.3557 68.2579 59.9572 68.5005 61.4871C68.4885 61.6286 68.5102 61.77 68.564 61.9018C69.4544 67.3476 69.2953 72.913 68.0955 78.2995C68.0939 78.3324 68.0939 78.3654 68.0955 78.3983L66.6017 78.2995C64.5318 78.1018 62.1741 77.8856 59.024 77.4622C57.8452 77.0837 56.7249 76.5445 55.6939 75.8606C48.7309 71.748 41.0495 68.999 33.0592 67.7606C20.7556 65.5821 15.1756 67.9318 14.9419 68.0306C14.5144 68.2452 14.3288 68.757 14.5208 69.1958C14.7121 69.6338 15.2135 69.8459 15.6619 69.6771C15.7157 69.6771 21.0619 67.4447 32.7619 69.461V69.4618C40.5492 70.6824 48.0329 73.3767 54.8124 77.3995C56.6124 78.4168 57.7912 79.0918 58.7901 79.1995C61.9851 79.6222 64.3524 79.8471 66.4402 80.0456C69.9084 80.3036 73.3526 80.8147 76.7453 81.5756C82.8291 82.953 86.8076 85.3556 87.9415 88.3432C88.6028 90.2011 88.2629 92.267 87.0415 93.8156C85.4938 95.9668 78.9415 94.1933 74.0903 92.9156C72.0147 92.2672 69.8853 91.8067 67.7276 91.5383C60.9318 91.3013 54.1294 91.8019 47.4415 93.0322C46.9449 93.1294 46.6202 93.6107 46.7175 94.1082C46.8139 94.6048 47.2952 94.9294 47.7926 94.8322C54.32 93.6308 60.9592 93.1423 67.5927 93.3745C69.6209 93.6469 71.6234 94.0897 73.5777 94.6972C77.0428 95.5972 80.7777 96.6322 83.739 96.6683C74.739 102.257 66.1078 106.667 62.067 106.667C53.5893 106.667 16.0775 87.5871 15.6989 87.3982C15.2594 87.1901 14.7331 87.3685 14.5113 87.8016C14.2903 88.2355 14.4534 88.7659 14.8801 89.0005C16.4374 89.7929 53.1574 108.468 62.0669 108.468C72.4618 108.468 110.883 81.5934 113.475 75.5721V75.5713C113.843 74.8103 114.017 73.969 113.979 73.1237C114.702 72.2261 115.059 71.0875 114.978 69.9376L114.976 69.9388ZM81.7838 34.2001C88.2461 30.6902 101.376 29.3127 108.298 29.3127H108.299C109.463 29.295 110.626 29.3585 111.782 29.5024C109.982 31.0412 108.029 34.4885 105.563 38.7274C101.837 45.1535 97.193 53.1274 92.0631 56.3763C88.6013 58.6206 84.3552 59.306 80.3631 58.2663C77.798 57.5471 75.5899 55.9061 74.1618 53.6578C75.818 52.0756 77.782 50.8503 79.9307 50.0578C80.3847 49.8907 80.6258 49.3941 80.4755 48.9345C80.3252 48.474 79.8382 48.2153 79.373 48.3478C77.1253 49.1619 75.0563 50.4026 73.2795 52.0026C69.7519 44.3613 72.083 39.5013 81.7846 34.2003L81.7838 34.2001ZM62.7038 34.9651C62.5117 34.5287 62.0119 34.3182 61.5651 34.4854C61.1183 34.6525 60.8796 35.1395 61.0211 35.5951C61.0211 35.5951 61.5611 37.0713 62.3984 39.5824C61.6342 39.6258 60.8724 39.474 60.1837 39.1413C58.8964 38.5563 56.5386 36.8912 55.2161 32.364C53.6499 26.964 54.0822 21.1952 54.3972 16.9468C54.5234 15.2995 54.6222 13.8868 54.6046 12.708C57.6557 16.0556 64.9907 26.5318 65.8547 29.4754C67.1323 33.8042 66.467 37.1527 64.0547 38.8628C63.235 36.4415 62.7223 35.0377 62.7039 35.0015L62.7038 34.9651ZM77.1038 79.8026C75.8976 79.5326 74.8177 79.3164 73.8099 79.1364C74.7099 78.6414 75.9248 77.9937 77.4099 77.1653C81.5676 74.8526 87.2648 71.6929 89.2448 71.6929C90.7475 71.6929 91.1437 72.0802 91.2248 72.1967V72.1975C91.3044 72.3373 91.3204 72.5045 91.2698 72.6571C91.2031 72.8492 91.2031 73.0589 91.2698 73.251C89.8571 74.151 88.5698 74.9337 87.3999 75.5459C85.5999 76.5359 79.2999 79.3983 77.9498 80.0459L77.1038 79.8026ZM111.8 74.7803C110.638 77.4803 100.532 85.5175 89.5166 92.8527C90.1924 91.2022 90.2181 89.3564 89.5889 87.6874C88.9975 86.2314 88.0356 84.957 86.799 83.9879C92.2617 81.0177 95.3129 79.0379 97.599 77.5706V77.5714C99.8571 75.9715 102.306 74.6593 104.889 73.6653C109.227 72.0003 111.442 72.1176 112.026 72.7653C112.449 73.2064 112.089 74.2415 111.846 74.8176L111.8 74.7803ZM112.952 71.1803C111.071 69.7941 107.201 70.8203 104.204 71.9726C101.501 73.014 98.9376 74.3865 96.5719 76.0587C94.2496 77.5799 91.0643 79.6587 85.1595 82.8263V82.8271C83.7331 81.9922 82.2175 81.3188 80.6418 80.8198C83.0893 79.6948 86.8879 77.9309 88.2919 77.1659C89.6959 76.4008 91.343 75.3659 93.0891 74.3036C95.6453 72.7197 98.5519 70.9286 101.369 69.5248C105.932 67.2476 110.702 68.2922 112.637 69.5248C112.927 69.6622 113.134 69.9298 113.194 70.2448C113.218 70.5864 113.15 70.9287 112.997 71.2348L112.952 71.1803Z" fill="#0D5BA1"/>
<path d="M47.7011 55.7999C47.3837 55.865 47.1266 56.0948 47.0261 56.4026C46.7385 57.3026 45.325 61.7039 45.64 63.2603V63.2611C45.7975 64.0502 46.2234 64.7614 46.8453 65.2732C47.4665 65.7843 48.246 66.0656 49.0512 66.0688C49.2843 66.068 49.5165 66.0439 49.7439 65.9973C50.6439 65.806 51.4322 65.2684 51.9376 64.5002C52.4431 63.7312 52.6255 62.795 52.4439 61.8926C52.1289 60.3353 49.1226 56.7898 48.5289 56.0964V56.0972C48.324 55.8609 48.0098 55.7484 47.7013 55.7999L47.7011 55.7999ZM50.4011 63.5037C50.021 64.0686 49.3388 64.3499 48.671 64.2181C48.0033 64.0863 47.4793 63.5672 47.3411 62.9011C47.4239 61.4 47.718 59.9182 48.2138 58.4998C49.2054 59.6144 50.0355 60.8622 50.6799 62.2074C50.7691 62.6598 50.6687 63.1283 50.4011 63.5036L50.4011 63.5037Z" fill="#0D5BA1"/>
<path d="M75.267 23.6244C75.8367 24.0053 76.5069 24.2094 77.1923 24.2094C77.4253 24.2086 77.6576 24.1845 77.8858 24.137C78.7858 23.9466 79.5741 23.409 80.0795 22.6408C80.585 21.8718 80.7666 20.9348 80.5858 20.0332C80.2708 18.4759 77.2645 14.9304 76.662 14.237C76.4498 13.9903 76.122 13.877 75.803 13.9405C75.4839 14.0031 75.2236 14.2338 75.1223 14.5431C74.8347 15.4431 73.4212 19.8444 73.7362 21.4008L73.737 21.4016C73.925 22.3185 74.4771 23.1205 75.267 23.6244L75.267 23.6244ZM76.392 16.6856C77.3836 17.8002 78.2137 19.048 78.8572 20.3932C78.9826 21.2812 78.3944 22.1121 77.5161 22.2888C76.637 22.4656 75.7731 21.9264 75.5457 21.0594C75.6237 19.5655 75.9121 18.0901 76.4007 16.6766L76.392 16.6856Z" fill="#0D5BA1"/>
<path d="M128.611 68.2293C128.73 67.5695 128.841 66.909 128.943 66.2493C128.988 65.9343 129.042 65.6193 129.078 65.3493C129.114 65.0793 129.168 64.6116 129.213 64.242C129.276 63.6746 129.339 63.1081 129.393 62.532V62.5328C130.481 49.9914 127.43 37.4397 120.707 26.7961C113.985 16.1536 103.961 8.00613 92.1686 3.59973C90.4763 2.96973 88.7398 2.41206 87.021 1.94357C86.5485 1.83348 86.0736 2.11794 85.9474 2.58642C85.8213 3.05409 86.0889 3.53865 86.5525 3.68088C88.2264 4.13088 89.9098 4.67088 91.5475 5.29204C101.551 9.03748 110.272 15.5722 116.673 24.1221C123.075 32.672 126.893 42.8783 127.673 53.531V53.576C127.763 54.9083 127.817 56.276 127.817 57.5988C127.813 59.746 127.687 61.8914 127.439 64.0249C127.439 64.3672 127.358 64.7087 127.313 65.0422C127.268 65.3749 127.223 65.6722 127.169 65.9872C127.07 66.6172 126.971 67.2472 126.854 67.8772L126.809 68.1295C126.647 68.9484 126.476 69.7584 126.278 70.5771V70.5763C125.838 72.4301 125.304 74.259 124.676 76.0576C124.512 76.5277 124.76 77.0411 125.229 77.205C125.699 77.369 126.213 77.1215 126.377 76.6514C127.311 73.9738 128.046 71.2304 128.573 68.4438L128.611 68.2293Z" fill="#0D5BA1"/>
<path d="M75.0695 1.8001C76.4468 1.87242 77.8323 2.00742 79.2007 2.18742H79.318C79.8146 2.21957 80.2437 1.84269 80.2758 1.34527C80.3088 0.848655 79.9319 0.419555 79.4345 0.387423C78.0218 0.242781 76.5907 0.107775 75.1684 0.000103933C74.9225 -0.0119497 74.6814 0.0772468 74.503 0.247599C74.3246 0.417153 74.2234 0.653411 74.2234 0.900104C74.2226 1.37662 74.5938 1.77118 75.0696 1.8001H75.0695Z" fill="#0D5BA1"/>
<path d="M15.7951 66.0158H15.9124C16.4034 65.9507 16.7497 65.4999 16.6862 65.0081C15.6432 57.3566 16.2161 49.5724 18.3689 42.1574C18.4492 41.9236 18.4308 41.6672 18.3167 41.4487C18.2026 41.2293 18.0033 41.067 17.7662 40.9987C17.5284 40.9312 17.2736 40.9633 17.0607 41.0887C16.8485 41.214 16.6967 41.4213 16.6412 41.6624C14.4209 49.3148 13.8287 57.3473 14.9039 65.2414C14.9666 65.6849 15.3466 66.0152 15.795 66.0152L15.7951 66.0158Z" fill="#0D5BA1"/>
<path d="M64.8003 112.941C63.5764 112.789 62.3615 112.581 61.2003 112.348C58.2431 111.704 55.3327 110.862 52.4878 109.828C46.682 107.669 41.2772 104.557 36.4952 100.62C36.3136 100.451 36.0701 100.363 35.8226 100.379C35.5743 100.395 35.3445 100.513 35.1862 100.705C35.0279 100.897 34.9563 101.145 34.9877 101.392C35.019 101.637 35.1508 101.86 35.3525 102.006C39.3269 105.282 43.7257 108.006 48.4289 110.106C53.5846 112.403 59.0385 113.96 64.6289 114.732H64.7463C65.2429 114.765 65.672 114.388 65.7049 113.89C65.7371 113.394 65.3602 112.965 64.8628 112.932L64.8003 112.941Z" fill="#0D5BA1"/>
<path d="M76.1309 113.202C74.7632 113.32 73.3681 113.382 71.9909 113.4H71.8735C71.6349 113.418 71.4131 113.53 71.2572 113.711C71.1013 113.893 71.0234 114.129 71.041 114.368C71.0788 114.865 71.5119 115.237 72.0085 115.2C73.4309 115.2 74.8708 115.119 76.2835 114.993C76.7777 114.95 77.1441 114.516 77.1023 114.021C77.0597 113.527 76.625 113.161 76.1308 113.202L76.1309 113.202Z" fill="#0D5BA1"/>
</g>
<defs>
<clipPath id="clip0_988_274">
<rect width="144" height="144" fill="white"/>
</clipPath>
</defs>
</svg>
