<svg width="144" height="144" viewBox="0 0 144 144" fill="none" xmlns="http://www.w3.org/2000/svg">
<path d="M16.1998 108C16.6771 108 17.1351 107.81 17.4726 107.473C17.8101 107.135 17.9998 106.677 17.9998 106.2V77.653L50.6343 90.3343C52.5966 91.2343 55.3416 91.1266 56.9343 89.5516V89.5508C57.365 89.1619 57.729 88.7063 58.0143 88.2008L59.8143 84.7446C60.3752 83.5907 60.4395 82.2575 59.9943 81.0545C59.4197 79.5438 58.2618 78.328 56.7816 77.6796L56.0705 77.4096H75.0604C76.6772 77.461 78.2465 76.8615 79.4166 75.7446L79.5693 75.5646L79.6769 75.6096C79.9646 75.7984 88.182 79.4523 88.182 79.4523L88.1828 89.1007C88.1828 90.0947 88.988 90.9007 89.9828 90.9007C90.9768 90.9007 91.7828 90.0947 91.7828 89.1007V81.0007L108.775 88.4706H108.774C110.651 89.1978 112.757 89.0259 114.489 88.0029C115.461 87.3938 116.265 86.5525 116.829 85.5545L123.517 74.5745C124.033 73.7243 123.763 72.617 122.913 72.0996C122.064 71.5829 120.956 71.8529 120.438 72.7031L113.697 83.773L113.589 83.9803V83.9795C112.909 85.0619 111.6 85.5697 110.368 85.2306L82.0719 72.8106C81.4973 72.5832 81.0377 72.1364 80.7934 71.5683C80.6769 71.324 80.6769 71.0395 80.7934 70.7945L82.4134 67.5006C82.7372 66.8706 83.9707 66.5555 85.1584 67.0779L106.758 76.3118C108.135 76.9683 109.784 76.4146 110.485 75.0606L118.486 60.7419C118.983 59.874 118.683 58.7683 117.816 58.2708C116.948 57.7742 115.842 58.074 115.345 58.9418L107.641 72.7294L96.9309 68.1481L103.698 52.938C104.25 51.6347 104.267 50.1673 103.747 48.8511C103.228 47.5349 102.211 46.4749 100.918 45.9003L99.1904 45.153C99.4243 45.0269 99.6581 44.9007 99.9016 44.7754H99.9008C98.7284 44.1341 97.6346 43.3579 96.6431 42.4627C96.1569 42.76 95.6981 43.0927 95.2481 43.435L75.6007 34.8843C74.9225 34.5886 74.1897 34.4351 73.4496 34.4343C72.3977 34.4335 71.3675 34.7373 70.4844 35.3086C69.6013 35.8807 68.9022 36.6956 68.4731 37.6566L58.3207 60.4169C57.9149 61.3249 57.771 62.3286 57.9068 63.3146L55.8007 63.3596V57.2034C55.7453 51.1525 52.5519 45.5645 47.3681 42.4434C46.3725 43.3361 45.2756 44.1092 44.1007 44.7471C46.488 45.8488 48.5156 47.6023 49.9484 49.8065C51.382 52.0107 52.1623 54.5749 52.2007 57.2034V75.9234L30.4938 67.6884L33.0765 60.9471C33.4317 60.0158 32.9648 58.972 32.0327 58.6168C31.1005 58.2608 30.0567 58.7285 29.7015 59.6607L26.8843 67.0133C26.5588 67.706 26.5371 68.5023 26.824 69.2111C27.1117 69.9207 27.6814 70.4776 28.3966 70.7484L55.3513 80.9995C55.9243 81.2494 56.3783 81.7107 56.6202 82.2869C56.7335 82.5569 56.7335 82.8622 56.6202 83.1322L54.8202 86.5884C54.4963 87.2546 53.2902 87.6146 52.1202 87.0657L18.0004 73.7996V57.2034C18.0478 54.3845 18.9422 51.6444 20.5685 49.3412C22.1941 47.0374 24.4763 45.2767 27.1176 44.2885C25.9613 43.5886 24.8918 42.7553 23.9315 41.8047C21.0902 43.2584 18.6994 45.4617 17.02 48.1763C15.3397 50.8899 14.4341 54.0118 14.4004 57.2036V106.201C14.4004 106.678 14.59 107.136 14.9275 107.474C15.265 107.811 15.7231 108.001 16.2004 108.001L16.1998 108ZM61.605 61.883L71.7389 39.1228C72.0378 38.4574 72.7016 38.0307 73.4312 38.0339C73.6755 38.0331 73.9174 38.0821 74.1424 38.1778L99.4782 49.1763C100.361 49.5845 100.76 50.6211 100.378 51.5163L93.6009 66.7801L86.5986 63.7828C83.7186 62.5051 80.4698 63.414 79.1912 65.9066L77.6163 69.2093L77.6171 69.2101C77.3993 69.6457 77.2571 70.1142 77.1936 70.5963L62.5237 64.2239C61.6405 63.8157 61.242 62.7791 61.6237 61.8839L61.605 61.883ZM55.8 66.9592L60.0124 66.8869C60.3459 67.1416 60.7083 67.3562 61.0924 67.5265L75.4924 73.7815C75.3606 73.7911 75.228 73.7911 75.0962 73.7815H55.8L55.8 66.9592Z" fill="#2D2D2D"/>
<path d="M22.501 29.701C22.501 33.2817 23.9233 36.7155 26.4554 39.2466C28.9867 41.7787 32.4203 43.201 36.001 43.201C39.5816 43.201 43.0154 41.7787 45.5465 39.2466C48.0787 36.7153 49.501 33.2817 49.501 29.701C49.501 26.1204 48.0786 22.6866 45.5465 20.1555C43.0152 17.6234 39.5816 16.201 36.001 16.201C32.4203 16.201 28.9865 17.6234 26.4554 20.1555C23.9233 22.6868 22.501 26.1204 22.501 29.701ZM45.901 29.701C45.901 32.3264 44.8579 34.8447 43.0016 36.7017C41.1446 38.5579 38.6261 39.601 36.001 39.601C33.3759 39.601 30.8573 38.558 29.0003 36.7017C27.1441 34.8447 26.101 32.3262 26.101 29.701C26.101 27.0759 27.144 24.5574 29.0003 22.7004C30.8574 20.8441 33.3759 19.801 36.001 19.801C38.6261 19.801 41.1447 20.8441 43.0016 22.7004C44.8579 24.5574 45.901 27.0759 45.901 29.701Z" fill="#2D2D2D"/>
<path d="M55.8 96.299C55.8 97.2931 54.994 98.0991 54 98.0991C53.0059 98.0991 52.2 97.2931 52.2 96.299C52.2 95.305 53.0059 94.499 54 94.499C54.994 94.499 55.8 95.305 55.8 96.299Z" fill="#2D2D2D"/>
<path d="M108 43.1999C111.581 43.1999 115.014 41.7776 117.546 39.2455C120.078 36.7142 121.5 33.2806 121.5 29.6999C121.5 26.1193 120.078 22.6855 117.546 20.1544C115.014 17.6223 111.581 16.2 108 16.2C104.419 16.2 100.986 17.6223 98.4544 20.1544C95.9223 22.6857 94.5 26.1193 94.5 29.6999C94.5 33.2806 95.9223 36.7144 98.4544 39.2455C100.986 41.7776 104.419 43.1999 108 43.1999ZM108 19.7999C110.625 19.7999 113.144 20.843 115.001 22.6993C116.857 24.5563 117.9 27.0748 117.9 29.6999C117.9 32.3251 116.857 34.8436 115.001 36.7006C113.144 38.5568 110.625 39.5999 108 39.5999C105.375 39.5999 102.856 38.5569 100.999 36.7006C99.1431 34.8436 98.1 32.3251 98.1 29.6999C98.1 27.0748 99.143 24.5563 100.999 22.6993C102.856 20.843 105.375 19.7999 108 19.7999Z" fill="#2D2D2D"/>
<path d="M91.7999 96.299C91.7999 97.2931 90.994 98.0991 89.9999 98.0991C89.0059 98.0991 88.2 97.2931 88.2 96.299C88.2 95.305 89.0059 94.499 89.9999 94.499C90.994 94.499 91.7999 95.305 91.7999 96.299Z" fill="#2D2D2D"/>
<path d="M84.5999 85.499C84.5999 85.0217 84.4102 84.5637 84.0727 84.2262C83.7352 83.8887 83.2772 83.699 82.7999 83.699H74.0523C74.4605 82.979 74.3255 82.0726 73.7236 81.5036C73.1225 80.9347 72.2105 80.8487 71.5138 81.2963L67.41 83.9963C66.9046 84.329 66.6008 84.8939 66.6008 85.499C66.6008 86.1041 66.9046 86.669 67.41 87.0017L71.5138 89.7017C72.2105 90.1493 73.1226 90.0633 73.7236 89.4944C74.3255 88.9255 74.4605 88.019 74.0523 87.299H82.7999C83.2772 87.299 83.7352 87.1094 84.0727 86.7719C84.4102 86.4344 84.5999 85.9763 84.5999 85.499V85.499Z" fill="#2D2D2D"/>
<path d="M16.2003 3.60002H52.2003C52.6776 3.60002 53.1357 3.78966 53.4732 4.12716C53.8107 4.46466 54.0003 4.9227 54.0003 5.40002V16.2C54.0003 17.194 54.8063 18 55.8003 18C56.7943 18 57.6003 17.194 57.6003 16.2V5.40002C57.6003 3.96806 57.0314 2.59387 56.0189 1.58155C55.0064 0.569231 53.6322 0.00012207 52.2004 0.00012207H16.2004C15.2064 0.00012207 14.4004 0.806111 14.4004 1.80012C14.4004 2.79413 15.2064 3.60012 16.2004 3.60012L16.2003 3.60002Z" fill="#2D2D2D"/>
<path d="M127.8 104.4C126.806 104.4 126 105.206 126 106.2V111.6H16.1999C15.2059 111.6 14.3999 112.406 14.3999 113.4C14.3999 114.394 15.2059 115.2 16.1999 115.2H127.8C128.277 115.2 128.735 115.01 129.073 114.673C129.41 114.335 129.6 113.877 129.6 113.4V106.2C129.6 105.723 129.41 105.265 129.073 104.927C128.735 104.59 128.277 104.4 127.8 104.4Z" fill="#2D2D2D"/>
<path d="M16.1999 10.7999H26.0999C27.0939 10.7999 27.8999 9.99396 27.8999 8.99995C27.8999 8.00594 27.0939 7.19995 26.0999 7.19995H16.1999C15.2059 7.19995 14.3999 8.00594 14.3999 8.99995C14.3999 9.99396 15.2059 10.7999 16.1999 10.7999Z" fill="#2D2D2D"/>
<path d="M120.069 41.8053C119.109 42.7559 118.039 43.5892 116.883 44.2891C119.524 45.2775 121.807 47.038 123.432 49.3418C125.059 51.6448 125.953 54.3851 126 57.204V99.001C126 99.995 126.806 100.801 127.8 100.801C128.794 100.801 129.6 99.995 129.6 99.001V57.204C129.567 54.0121 128.661 50.8904 126.981 48.1766C125.301 45.4622 122.911 43.2588 120.069 41.8051V41.8053Z" fill="#2D2D2D"/>
</svg>
