<svg width="144" height="144" viewBox="0 0 144 144" fill="none" xmlns="http://www.w3.org/2000/svg">
<path d="M96.9407 22.6677C91.4306 22.6677 86.9475 27.15 86.9475 32.6601C86.9475 38.1702 91.4306 42.6533 96.9407 42.6533C102.451 42.6533 106.933 38.1702 106.933 32.6601C106.932 27.1492 102.451 22.6677 96.9407 22.6677ZM96.9407 40.3487C92.7003 40.3487 89.2513 36.8997 89.2513 32.6593C89.2513 28.4205 92.7003 24.9707 96.9407 24.9707C101.179 24.9707 104.629 28.4197 104.629 32.6593C104.628 36.8997 101.179 40.3487 96.9407 40.3487Z" fill="white"/>
<path d="M117.047 29.4954C117.373 29.4616 117.668 29.2905 117.86 29.0261C118.052 28.7617 118.122 28.4274 118.053 28.1084C117.508 25.5627 116.509 23.1552 115.086 20.9526C114.907 20.6778 114.623 20.4922 114.3 20.44C113.978 20.3861 113.648 20.4761 113.393 20.6818C112.128 21.7048 110.3 21.6076 109.146 20.4544C107.993 19.3005 107.895 17.4732 108.918 16.2068C109.124 15.9529 109.212 15.6226 109.16 15.3004C109.109 14.9774 108.923 14.6929 108.648 14.5153C106.446 13.0922 104.038 12.0935 101.491 11.5477C101.173 11.477 100.838 11.5485 100.573 11.7414C100.309 11.9334 100.138 12.2283 100.104 12.5538C99.9327 14.1762 98.5731 15.3992 96.9394 15.3992C95.3057 15.3992 93.9444 14.1762 93.7733 12.5538C93.7395 12.2283 93.5683 11.9326 93.304 11.7414C93.0404 11.5493 92.7045 11.4826 92.3863 11.5477C89.8389 12.0933 87.4315 13.0922 85.2305 14.5153C84.9557 14.6929 84.7701 14.979 84.7187 15.3004C84.6672 15.6235 84.7548 15.9529 84.9605 16.2068C85.9843 17.4733 85.8863 19.3006 84.7323 20.4544C83.5784 21.6076 81.7519 21.7056 80.4831 20.6802C80.23 20.4753 79.9005 20.3853 79.5775 20.4392C79.2544 20.4906 78.97 20.6762 78.7924 20.951C77.3701 23.1503 76.3728 25.558 75.8248 28.1068C75.7564 28.4266 75.8256 28.7601 76.0184 29.0245C76.2097 29.2889 76.5054 29.46 76.8308 29.4938C78.4532 29.6649 79.6763 31.0262 79.6763 32.6599C79.6763 34.2936 78.4532 35.6549 76.8308 35.8261C76.5054 35.8598 76.2097 36.031 76.0184 36.2953C75.8264 36.5597 75.7565 36.894 75.8248 37.213C76.3728 39.7635 77.3716 42.1711 78.7924 44.3688C78.97 44.6436 79.256 44.8292 79.5775 44.8807C79.9005 44.9345 80.23 44.8461 80.4831 44.6396C81.7543 43.6134 83.5801 43.7147 84.7323 44.867C85.8863 46.0209 85.9843 47.8474 84.9597 49.1162C84.7548 49.3694 84.6672 49.6988 84.7187 50.0219C84.7701 50.3433 84.9557 50.6293 85.2305 50.8069C87.4292 52.2276 89.8367 53.2266 92.3863 53.7746C92.7037 53.8413 93.0396 53.7746 93.304 53.5809C93.5684 53.3897 93.7395 53.0939 93.7733 52.7685C93.9444 51.1461 95.3057 49.9231 96.9394 49.9231C98.5731 49.9231 99.9327 51.1461 100.104 52.7685C100.138 53.0939 100.309 53.3881 100.573 53.5809C100.771 53.7248 101.009 53.8003 101.249 53.8003C101.33 53.8003 101.411 53.7915 101.491 53.7746C104.04 53.2265 106.447 52.2285 108.648 50.8069C108.923 50.6293 109.109 50.3449 109.16 50.0218C109.212 49.6988 109.124 49.3693 108.919 49.1162C107.895 47.8482 107.992 46.0217 109.145 44.867C110.3 43.7131 112.125 43.6134 113.392 44.6388C113.648 44.8461 113.977 44.9345 114.299 44.8807C114.62 44.8292 114.906 44.6436 115.084 44.3688C116.507 42.167 117.506 39.7595 118.052 37.213C118.12 36.8932 118.051 36.5597 117.858 36.2953C117.667 36.031 117.371 35.8598 117.046 35.8261C115.423 35.6549 114.2 34.2936 114.2 32.6599C114.203 31.0279 115.425 29.6666 117.047 29.4954L117.047 29.4954ZM115.531 37.8284C115.114 39.3367 114.513 40.7848 113.736 42.1532C111.684 41.1808 109.191 41.5658 107.516 43.2396C105.843 44.9134 105.46 47.4078 106.43 49.46C105.064 50.2354 103.615 50.8357 102.106 51.2544C101.343 49.1145 99.3076 47.6215 96.9388 47.6215C94.57 47.6215 92.5344 49.1145 91.7718 51.2544C90.2619 50.8357 88.8139 50.2354 87.4471 49.46C88.4178 47.4077 88.0345 44.9141 86.3607 43.2396C84.6869 41.5666 82.195 41.1816 80.1403 42.1532C79.3649 40.7863 78.7646 39.3382 78.3459 37.8284C80.4858 37.0659 81.9788 35.0303 81.9788 32.6615C81.9788 30.2927 80.4858 28.2572 78.3459 27.4946C78.7646 25.9847 79.3648 24.5366 80.1403 23.1699C82.1926 24.1398 84.6862 23.7557 86.3607 22.0842C88.0345 20.4104 88.4195 17.9161 87.4471 15.8638C88.8148 15.0876 90.2629 14.4865 91.7718 14.0695C92.5336 16.2093 94.57 17.7024 96.9388 17.7024C99.3076 17.7024 101.344 16.2093 102.106 14.0695C103.614 14.4865 105.061 15.0876 106.43 15.8638C105.458 17.9162 105.843 20.4097 107.516 22.0842C109.191 23.7597 111.684 24.1406 113.736 23.1699C114.513 24.5375 115.114 25.9857 115.531 27.4946C113.391 28.2564 111.898 30.2927 111.898 32.6615C111.898 35.0303 113.391 37.0667 115.531 37.8284Z" fill="white"/>
<path d="M47.0961 42.6528C52.6062 42.6528 57.0885 38.1697 57.0885 32.6596C57.0885 27.1495 52.6062 22.6672 47.0961 22.6672C41.5861 22.6672 37.1038 27.1495 37.1038 32.6596C37.1038 38.1697 41.5861 42.6528 47.0961 42.6528ZM47.0961 24.971C51.3349 24.971 54.7847 28.42 54.7847 32.6596C54.7847 36.9 51.3357 40.349 47.0961 40.349C42.8574 40.349 39.4076 36.9 39.4076 32.6596C39.4084 28.42 42.8574 24.971 47.0961 24.971Z" fill="white"/>
<path d="M34.889 44.8693C36.043 46.0232 36.141 47.8497 35.1165 49.1185C34.9116 49.3716 34.824 49.7011 34.8754 50.0241C34.9268 50.3456 35.1124 50.6316 35.3873 50.8092C37.5859 52.2299 39.9934 53.2288 42.543 53.7768C42.6226 53.7937 42.7037 53.8026 42.7849 53.8026C43.026 53.8026 43.263 53.727 43.4607 53.5832C43.7251 53.3919 43.8963 53.0962 43.93 52.7708C44.1012 51.1484 45.4624 49.9253 47.0961 49.9253C48.7299 49.9253 50.0911 51.1484 50.2623 52.7708C50.296 53.0962 50.4672 53.3919 50.7316 53.5832C50.9968 53.7768 51.3343 53.8443 51.6492 53.7768C54.1997 53.2288 56.6074 52.23 58.805 50.8092C59.0798 50.6316 59.2655 50.3456 59.3169 50.0241C59.3683 49.7011 59.2807 49.3716 59.0758 49.1185C58.0513 47.8497 58.1485 46.0239 59.3032 44.8693C60.4564 43.7137 62.282 43.6157 63.5502 44.6411C63.8057 44.8484 64.1344 44.9368 64.4566 44.8829C64.778 44.8315 65.0641 44.6459 65.2417 44.3711C66.6648 42.1693 67.6636 39.7618 68.2093 37.2153C68.2776 36.8955 68.2085 36.562 68.0157 36.2976C67.8244 36.0332 67.5287 35.8621 67.2033 35.8283C65.5809 35.6572 64.3578 34.2959 64.3578 32.6622C64.3578 31.0284 65.5809 29.6672 67.2033 29.496C67.5287 29.4623 67.8244 29.2911 68.0157 29.0268C68.2077 28.7624 68.2776 28.4281 68.2093 28.1091C67.6637 25.5634 66.6649 23.1559 65.2417 20.9533C65.0641 20.6785 64.7797 20.4929 64.4566 20.4414C64.1336 20.3876 63.8049 20.4776 63.5502 20.6833C62.2822 21.7079 60.4573 21.609 59.3032 20.4559C58.1493 19.302 58.0513 17.4747 59.075 16.2083C59.2807 15.9544 59.3683 15.6241 59.3169 15.3019C59.2655 14.9805 59.0798 14.6944 58.805 14.5168C56.6049 13.0937 54.1974 12.0955 51.6492 11.5492C51.3334 11.4825 50.9959 11.55 50.7316 11.7428C50.4672 11.9341 50.296 12.2298 50.2623 12.5552C50.0911 14.1776 48.7299 15.4007 47.0961 15.4007C45.4624 15.4007 44.1012 14.1776 43.93 12.5552C43.8962 12.2298 43.7251 11.9341 43.4607 11.7428C43.1972 11.5508 42.8596 11.4841 42.5431 11.5492C39.9957 12.0948 37.5882 13.0936 35.3873 14.5168C35.1125 14.6944 34.9268 14.9805 34.8754 15.3019C34.824 15.6249 34.9116 15.9544 35.1173 16.2083C36.141 17.4747 36.043 19.302 34.8891 20.4559C33.7335 21.609 31.9079 21.7054 30.6421 20.6833C30.3882 20.4776 30.0595 20.3876 29.7357 20.4414C29.4126 20.4929 29.1282 20.6785 28.9506 20.9533C27.5275 23.1559 26.5287 25.5634 25.983 28.1091C25.9146 28.4289 25.9838 28.7624 26.1766 29.0268C26.3679 29.2911 26.6636 29.4623 26.989 29.496C28.6114 29.6672 29.8345 31.0284 29.8345 32.6622C29.8345 34.2959 28.6114 35.6572 26.989 35.8283C26.6636 35.8621 26.3679 36.0332 26.1766 36.2976C25.9846 36.562 25.9147 36.8963 25.983 37.2153C26.5286 39.7626 27.5274 42.1701 28.9506 44.3711C29.1282 44.6459 29.4142 44.8315 29.7357 44.8829C30.0595 44.9368 30.3882 44.8484 30.6421 44.6411C31.9109 43.6173 33.7358 43.7169 34.8891 44.8693H34.889ZM28.5047 37.8291C30.6445 37.0665 32.1376 35.031 32.1376 32.6622C32.1376 30.2934 30.6446 28.2578 28.5047 27.4953C28.9217 25.987 29.5228 24.5389 30.2991 23.1705C32.3498 24.1404 34.8433 23.7563 36.5178 22.0849C38.1917 20.4111 38.5766 17.9167 37.6042 15.8645C38.9719 15.0883 40.4201 14.4872 41.929 14.0701C42.6908 16.21 44.7271 17.703 47.0959 17.703C49.4647 17.703 51.5011 16.21 52.2628 14.0701C53.7727 14.4872 55.2191 15.0883 56.5876 15.8645C55.6152 17.9168 56.0001 20.4104 57.674 22.0849C59.3494 23.7603 61.8413 24.1412 63.8927 23.1705C64.669 24.5382 65.27 25.9863 65.6871 27.4953C63.5473 28.2578 62.0542 30.2934 62.0542 32.6622C62.0542 35.031 63.5472 37.0665 65.6871 37.8291C65.2701 39.3374 64.669 40.7854 63.8927 42.1538C61.842 41.1815 59.3454 41.5664 57.674 43.2403C56.0001 44.9141 55.6152 47.4084 56.5876 49.4606C55.2207 50.2361 53.7742 50.8364 52.2628 51.255C51.5002 49.1152 49.4647 47.6221 47.0959 47.6221C44.7271 47.6221 42.6916 49.1152 41.929 51.255C40.4191 50.8364 38.971 50.2361 37.6042 49.4606C38.575 47.4083 38.1917 44.9148 36.5178 43.2403C34.8424 41.5664 32.3496 41.1815 30.2991 42.1538C29.5228 40.7854 28.9218 39.3374 28.5047 37.8291Z" fill="white"/>
<path d="M63.3948 69.2086C58.6506 73.9536 58.6506 81.6736 63.3948 86.4178C65.7677 88.7907 68.8841 89.9761 71.9986 89.9761C75.1148 89.9761 78.2311 88.79 80.604 86.4178C85.3482 81.6736 85.3482 73.9536 80.604 69.2086C75.859 64.4636 68.1406 64.4644 63.3948 69.2086ZM78.9752 84.789C75.1277 88.6356 68.8719 88.6334 65.0245 84.789C61.1795 80.9423 61.1795 74.6841 65.0245 70.8383C66.9482 68.9137 69.4739 67.9535 72.0002 67.9535C74.5258 67.9535 77.0524 68.9154 78.9752 70.8383C82.8202 74.6841 82.8202 80.9423 78.9752 84.789Z" fill="white"/>
<path d="M86.9513 56.2196C86.8998 55.8966 86.7142 55.6113 86.4394 55.4329C83.7402 53.6884 80.7701 52.4597 77.613 51.7823C77.2956 51.7156 76.9613 51.7831 76.6953 51.976C76.4309 52.1672 76.2598 52.4621 76.2261 52.7868C75.9946 54.9509 74.1794 56.5828 72.0001 56.5828C69.8208 56.5828 68.0039 54.9508 67.7733 52.7868C67.7395 52.4613 67.5683 52.1672 67.304 51.976C67.0388 51.7839 66.7029 51.7172 66.3863 51.7823C63.2306 52.4597 60.2607 53.6884 57.5599 55.4329C57.2851 55.6105 57.0995 55.8966 57.048 56.218C56.9966 56.541 57.0842 56.8705 57.2899 57.1244C58.66 58.8176 58.5306 61.2581 56.9886 62.8001C55.4465 64.3413 53.0062 64.4707 51.3129 63.1014C51.0598 62.8965 50.7255 62.8057 50.4073 62.8595C50.0843 62.911 49.799 63.0966 49.6206 63.3714C47.8761 66.0706 46.6474 69.0407 45.97 72.1978C45.9017 72.5176 45.9708 72.8503 46.1637 73.1155C46.3549 73.3799 46.6498 73.551 46.9745 73.5847C49.1378 73.8154 50.7705 75.6322 50.7705 77.8116C50.7705 79.9909 49.1385 81.8061 46.9745 82.0367C46.649 82.0705 46.3549 82.2416 46.1637 82.506C45.9716 82.7712 45.9017 83.1047 45.97 83.4237C46.6474 86.5818 47.8761 89.5517 49.6206 92.25C49.7982 92.5249 50.0843 92.7105 50.4073 92.7619C50.7255 92.8174 51.0598 92.725 51.3129 92.52C53.0069 91.1499 55.4474 91.2801 56.9886 92.8214C58.5306 94.3634 58.66 96.8038 57.2899 98.497C57.0842 98.7502 56.9966 99.0796 57.048 99.4026C57.0995 99.7257 57.2851 100.011 57.5599 100.189C60.2591 101.934 63.2292 103.163 66.3863 103.84C66.7021 103.907 67.0388 103.839 67.304 103.646C67.5684 103.455 67.7395 103.16 67.7733 102.835C68.0039 100.674 69.8207 99.0419 72.0001 99.0419C74.1794 99.0419 75.9946 100.674 76.2252 102.838C76.259 103.163 76.4301 103.458 76.6945 103.649C76.8938 103.793 77.13 103.868 77.3703 103.868C77.4515 103.868 77.5326 103.859 77.6122 103.842C80.7703 103.165 83.7402 101.936 86.4386 100.192C86.7134 100.014 86.899 99.7281 86.9505 99.4051C87.0019 99.0821 86.9143 98.7526 86.7086 98.4995C85.3385 96.8064 85.4679 94.3659 87.0099 92.8238C88.5512 91.2818 90.9915 91.1508 92.6856 92.5225C92.9387 92.7274 93.2754 92.8198 93.5912 92.7644C93.9142 92.713 94.1995 92.5273 94.3779 92.2525C96.1224 89.5533 97.3511 86.5832 98.0285 83.4261C98.0968 83.1063 98.0277 82.7736 97.8348 82.5085C97.6436 82.2441 97.3487 82.0729 97.024 82.0392C94.8607 81.8086 93.228 79.9925 93.228 77.814C93.228 75.6347 94.86 73.8178 97.024 73.5872C97.3495 73.5535 97.6436 73.3823 97.8348 73.1179C98.0269 72.8528 98.0968 72.5193 98.0285 72.2003C97.3511 69.0421 96.1224 66.0722 94.3779 63.3739C94.2003 63.0991 93.9142 62.9134 93.5912 62.862C93.2754 62.8082 92.9387 62.899 92.6856 63.1039C90.9924 64.4756 88.5519 64.3446 87.0099 62.8026C85.4679 61.2605 85.3385 58.8201 86.7086 57.1269C86.9151 56.8722 87.0027 56.5427 86.9513 56.2197V56.2196ZM93.0488 65.6094C94.1313 67.4737 94.9549 69.4674 95.5077 71.5599C92.8221 72.3989 90.9242 74.8956 90.9242 77.8141C90.9242 80.7311 92.8223 83.2276 95.5077 84.0668C94.9541 86.1593 94.1304 88.1529 93.0488 90.0156C90.557 88.7106 87.4472 89.1293 85.3819 91.1961C83.3167 93.2612 82.8948 96.3702 84.2014 98.863C82.3387 99.9454 80.3451 100.769 78.2526 101.322C77.4136 98.6355 74.9169 96.7384 71.9999 96.7384C69.0812 96.7384 66.5855 98.6364 65.7457 101.322C63.6532 100.768 61.6596 99.9446 59.7969 98.863C61.1043 96.3704 60.6824 93.2614 58.6165 91.1961C56.5513 89.1317 53.4423 88.709 50.9495 90.0172C49.8671 88.1529 49.0434 86.1592 48.4906 84.0667C51.1762 83.2278 53.0741 80.7311 53.0741 77.814C53.0741 74.8953 51.176 72.3996 48.4906 71.5599C49.0442 69.4674 49.8679 67.4738 50.9495 65.6111C53.4405 66.9161 56.5496 66.4974 58.6165 64.4306C60.6808 62.3663 61.1035 59.2579 59.7953 56.7645C61.6604 55.6812 63.6541 54.8576 65.7458 54.3039C66.5855 56.9895 69.0815 58.8874 71.9999 58.8874C74.917 58.8874 77.4135 56.9894 78.2526 54.3039C80.3451 54.8576 82.3387 55.6812 84.2015 56.7628C82.894 59.2555 83.3159 62.3644 85.3819 64.4298C87.4471 66.4958 90.556 66.9177 93.0489 65.6094L93.0488 65.6094Z" fill="white"/>
</svg>
