<svg width="144" height="144" viewBox="0 0 144 144" fill="none" xmlns="http://www.w3.org/2000/svg">
<path d="M58.6635 91.9379H35.8107C34.8175 91.9379 34.0107 91.1311 34.0107 90.1379C34.0107 89.1447 34.8175 88.3379 35.8107 88.3379H58.6635C59.6567 88.3379 60.4635 89.1447 60.4635 90.1379C60.4635 91.1319 59.6576 91.9379 58.6635 91.9379Z" fill="#2D2D2D"/>
<path d="M73.7156 82.9522H20.738C18.2357 82.9522 16.1987 80.912 16.1987 78.4049V72.2238C16.1987 71.2306 17.0055 70.4238 17.9987 70.4238H76.473C77.4662 70.4238 78.273 71.2306 78.273 72.2238V78.3872C78.273 80.9048 76.2279 82.9522 73.7152 82.9522H73.7156ZM19.8 74.0238V78.4049C19.8 78.9281 20.2218 79.3531 20.7393 79.3531H73.7149C74.2525 79.3531 74.6727 78.9281 74.6727 78.3864V74.023L19.8 74.0238Z" fill="#2D2D2D"/>
<path d="M47.236 91.9379C46.2428 91.9379 45.436 91.1311 45.436 90.1379V81.1523C45.436 80.1591 46.2428 79.3523 47.236 79.3523C48.2293 79.3523 49.036 80.1591 49.036 81.1523V90.1371C49.036 91.1319 48.2309 91.9379 47.236 91.9379V91.9379Z" fill="#2D2D2D"/>
<path d="M30.4023 63.543H26.7492C25.756 63.543 24.9492 62.7363 24.9492 61.743V58.0772C24.9492 57.084 25.756 56.2772 26.7492 56.2772H30.4023C31.3955 56.2772 32.2023 57.084 32.2023 58.0772V61.7439C32.2023 62.7379 31.3963 63.5431 30.4023 63.5431V63.543ZM28.5493 59.9431H28.6023V59.8772H28.5493V59.9431Z" fill="#2D2D2D"/>
<path d="M60.4183 62.0558H37.1149C36.1217 62.0558 35.3149 61.249 35.3149 60.2558C35.3149 59.2626 36.1217 58.4558 37.1149 58.4558H60.4183C61.4115 58.4558 62.2183 59.2626 62.2183 60.2558C62.2183 61.2498 61.4115 62.0558 60.4183 62.0558Z" fill="#2D2D2D"/>
<path d="M30.4023 49.896H26.7492C25.756 49.896 24.9492 49.0893 24.9492 48.096V44.4294C24.9492 43.4362 25.756 42.6294 26.7492 42.6294H30.4023C31.3955 42.6294 32.2023 43.4362 32.2023 44.4294V48.096C32.2023 49.0893 31.3963 49.896 30.4023 49.896ZM28.5493 46.296H28.6023V46.2294H28.5493V46.296Z" fill="#2D2D2D"/>
<path d="M60.4183 48.4087H37.1149C36.1217 48.4087 35.3149 47.6019 35.3149 46.6087C35.3149 45.6155 36.1217 44.8087 37.1149 44.8087H60.4183C61.4115 44.8087 62.2183 45.6155 62.2183 46.6087C62.2183 47.6027 61.4115 48.4087 60.4183 48.4087Z" fill="#2D2D2D"/>
<path d="M77.3383 70.4633C70.3023 70.4633 64.5776 64.7572 64.5776 57.7436C64.5776 50.7308 70.3014 45.0247 77.3383 45.0247C84.3752 45.0247 90.0989 50.7308 90.0989 57.7436C90.0981 64.7572 84.3743 70.4633 77.3383 70.4633ZM77.3383 48.6247C72.2862 48.6247 68.1776 52.7149 68.1776 57.7436C68.1776 62.7714 72.2872 66.8633 77.3383 66.8633C82.3904 66.8633 86.4989 62.7731 86.4989 57.7436C86.4981 52.7157 82.3888 48.6247 77.3383 48.6247Z" fill="#2D2D2D"/>
<path d="M76.0093 61.9817C75.6445 61.9817 75.2789 61.8708 74.9623 61.645L72.395 59.808C71.5866 59.2295 71.3994 58.1053 71.9779 57.2969C72.5557 56.4885 73.6807 56.3012 74.4891 56.8798L75.7708 57.7967L80.5119 52.7085C81.1885 51.9805 82.3288 51.9411 83.056 52.6185C83.7832 53.296 83.8234 54.4354 83.146 55.1626L77.3265 61.4079C76.9746 61.7864 76.4932 61.9817 76.0095 61.9817L76.0093 61.9817Z" fill="#2D2D2D"/>
<path d="M103.178 58.715H92.9045C91.9113 58.715 91.1045 57.9082 91.1045 56.915C91.1045 55.9218 91.9113 55.115 92.9045 55.115H103.178C104.171 55.115 104.978 55.9218 104.978 56.915C104.978 57.9082 104.172 58.715 103.178 58.715Z" fill="#2D2D2D"/>
<path d="M104.925 99.3683H104.905L96.0749 99.2759C95.0881 99.2654 94.2942 98.4626 94.2942 97.4759V17.7225C94.2942 16.7293 95.101 15.9225 96.0942 15.9225H104.925C105.918 15.9225 106.725 16.7293 106.725 17.7225C106.725 18.7157 105.918 19.5225 104.925 19.5225H97.8942V95.6944L104.944 95.7683C105.937 95.7787 106.735 96.5936 106.725 97.5876C106.714 98.5744 105.91 99.3683 104.925 99.3683L104.925 99.3683Z" fill="#2D2D2D"/>
<path d="M126 28.08H109.559C108.566 28.08 107.759 27.2732 107.759 26.28V9.90083C107.759 8.90762 108.566 8.10083 109.559 8.10083H126C126.993 8.10083 127.8 8.90762 127.8 9.90083V26.28C127.8 27.2732 126.993 28.08 126 28.08ZM111.359 24.48H124.2V11.7008H111.359V24.48Z" fill="#2D2D2D"/>
<path d="M126 107.099H109.559C108.566 107.099 107.759 106.292 107.759 105.299V88.9198C107.759 87.9265 108.566 87.1198 109.559 87.1198H126C126.993 87.1198 127.8 87.9265 127.8 88.9198V105.299C127.8 106.292 126.993 107.099 126 107.099ZM111.359 103.499H124.2V90.7198H111.359V103.499Z" fill="#2D2D2D"/>
<path d="M126 67.5895H109.559C108.566 67.5895 107.759 66.7827 107.759 65.7895V49.4095C107.759 48.4163 108.566 47.6095 109.559 47.6095H126C126.993 47.6095 127.8 48.4163 127.8 49.4095V65.7895C127.8 66.7827 126.993 67.5895 126 67.5895ZM111.359 63.9895H124.2V51.2095H111.359V63.9895Z" fill="#2D2D2D"/>
<path d="M117.189 21.4129C116.914 21.4129 116.639 21.3502 116.382 21.2224L114.127 20.0918C113.239 19.6466 112.879 18.5642 113.324 17.6755C113.769 16.7859 114.851 16.4283 115.74 16.8727L116.903 17.4561L119.948 14.7392C120.689 14.0779 121.827 14.1414 122.489 14.8839C123.151 15.6256 123.087 16.7634 122.345 17.4255L118.388 20.9563C118.05 21.2561 117.622 21.4128 117.189 21.4128L117.189 21.4129Z" fill="#2D2D2D"/>
<path d="M117.189 60.9469C116.914 60.9469 116.64 60.8851 116.382 60.7565L114.127 59.6259C113.237 59.1807 112.879 58.0983 113.324 57.2104C113.769 56.3208 114.851 55.9608 115.74 56.4076L116.902 56.9902L119.947 54.2733C120.688 53.6128 121.827 53.6755 122.489 54.418C123.15 55.1597 123.087 56.2975 122.344 56.9596L118.387 60.4904C118.051 60.7902 117.622 60.9469 117.189 60.9469L117.189 60.9469Z" fill="#2D2D2D"/>
<path d="M76.4745 74.0242H18.0002C17.007 74.0242 16.2002 73.2174 16.2002 72.2242V36.6973C16.2002 34.1894 18.2372 32.1492 20.7395 32.1492H73.7336C76.2375 32.1492 78.2737 34.1894 78.2737 36.6973V46.868C78.2737 47.8074 77.5505 48.5901 76.6135 48.6624C71.8821 49.0305 68.1759 53.0194 68.1759 57.7437C68.1759 62.4679 71.8821 66.4567 76.6135 66.8249C77.5513 66.8989 78.2737 67.6799 78.2737 68.6193V72.2226C78.2745 73.2174 77.4685 74.0242 76.4745 74.0242L76.4745 74.0242ZM19.8002 70.4242H74.6745V70.1751C68.8943 68.94 64.5768 63.7706 64.5768 57.7437C64.5768 51.7161 68.8943 46.5475 74.6737 45.3141V36.6965C74.6737 36.1734 74.2518 35.7483 73.7335 35.7483L20.7394 35.7475C20.2219 35.7491 19.8001 36.1742 19.8001 36.6973L19.8002 70.4242Z" fill="#2D2D2D"/>
</svg>
